<svg xmlns="http://www.w3.org/2000/svg" width="39" height="34"><g fill="#231F20" fill-rule="nonzero"><path d="M31.84 10.22c3.758 0 6.808 3.01 6.808 6.729 0 3.718-3.05 6.729-6.808 6.729h-7.757a.7.7 0 0 1 0-1.4h7.757c2.989 0 5.408-2.388 5.408-5.33 0-2.94-2.42-5.328-5.408-5.328h-2.624a.7.7 0 0 1-.7-.7c0-5.012-4.127-9.22-9.115-9.22-4.24 0-7.83 2.712-8.835 6.62a.7.7 0 0 1-.678.525H8.513c-3.765 0-6.813 3.01-6.813 6.717s3.048 6.716 6.813 6.716h6.57a.7.7 0 0 1 0 1.4h-6.57C3.979 23.678.3 20.046.3 15.562c0-4.485 3.68-8.117 8.213-8.117h.848C10.702 3.197 14.72.3 19.4.3c5.533 0 10.127 4.455 10.492 9.92h1.947Z"/><path d="m20.083 31.093 3.172-3.13a.7.7 0 0 1 .983.995l-4.363 4.308a.7.7 0 0 1-.983 0l-4.363-4.308a.7.7 0 0 1 .983-.996l3.171 3.13V15.24a.7.7 0 0 1 1.4 0v15.854Z"/></g></svg>