<svg xmlns="http://www.w3.org/2000/svg" width="44" height="44" viewBox="0 0 44 44"><path d="M22,0 C34.15,0 44,9.85 44,22 C44,34.15 34.15,44 22,44 C9.85,44 0,34.15 0,22 C0,9.85 9.85,0 22,0 Z M22,2 C10.954,2 2,10.954 2,22 C2,33.046 10.954,42 22,42 C33.046,42 42,33.046 42,22 C42,10.954 33.046,2 22,2 Z M26.978,12 L26.978,15.964 L24.944,15.964 C23.421,15.964 23.321,16.518 23.321,17.552 L23.314,19.536 L27,19.536 L26.569,23.499 L23.314,23.499 L23.314,35 L18.437,35 L18.437,23.499 L16,23.499 L16,19.536 L18.437,19.536 L18.437,17.156 C18.437,13.923 19.813,12 23.723,12 L26.978,12 Z"/></svg>