<svg xmlns="http://www.w3.org/2000/svg" width="44" height="44" viewBox="0 0 44 44"><path d="M22,0 C34.15,0 44,9.85 44,22 C44,34.15 34.15,44 22,44 C9.85,44 0,34.15 0,22 C0,9.85 9.85,0 22,0 Z M22,2 C10.954,2 2,10.954 2,22 C2,33.046 10.954,42 22,42 C33.046,42 42,33.046 42,22 C42,10.954 33.046,2 22,2 Z M23.096,11.001 C25.106,11.004 25.524,11.02 26.536,11.066 C27.706,11.12 28.506,11.306 29.206,11.578 C29.9397946,11.8540218 30.6045713,12.2867409 31.154,12.846 C31.7133804,13.3957183 32.1461069,14.0608477 32.422,14.795 C32.694,15.495 32.88,16.294 32.934,17.465 C32.9431379,17.6672414 32.9510868,17.845761 32.957985,18.018036 L32.9657674,18.2228871 C32.9876546,18.8351595 32.9966424,19.457103 32.9991872,20.9041314 L32.9999525,21.7001777 C32.9999845,21.7971058 33,21.897 33,22 L32.9999525,22.2998223 L32.9991872,23.0958686 C32.9966424,24.542897 32.9876546,25.1648405 32.9657674,25.7771129 L32.957985,25.981964 C32.9510868,26.154239 32.9431379,26.3327586 32.934,26.535 C32.88,27.706 32.694,28.505 32.422,29.205 C32.1461069,29.9391523 31.7133804,30.6042817 31.154,31.154 C30.6043803,31.7137414 29.9392435,32.146814 29.205,32.423 C28.505,32.694 27.706,32.88 26.535,32.933 C26.3327586,32.9423103 26.154239,32.9504019 25.981964,32.9574182 L25.7771129,32.9653308 C25.1648405,32.9875752 24.542897,32.996628 23.0958686,32.9991846 L20.9041314,32.9991872 C19.457103,32.9966424 18.8351595,32.9876546 18.2228871,32.9657674 L18.018036,32.957985 C17.845761,32.9510868 17.6672414,32.9431379 17.465,32.934 C16.294,32.88 15.495,32.694 14.795,32.423 C14.0606653,32.1465212 13.395521,31.7131024 12.846,31.153 C12.2863799,30.6036699 11.8533147,29.9388858 11.577,29.205 C11.306,28.505 11.12,27.706 11.067,26.535 C11.02235,25.57455 11.0056775,25.1492825 11.0015498,23.3858331 L11.001,20.904 C11.004,18.894 11.02,18.476 11.066,17.464 C11.12,16.294 11.306,15.494 11.577,14.794 C11.8536076,14.060023 12.2870189,13.3952314 12.847,12.846 C13.3964287,12.2867409 14.0612054,11.8540218 14.795,11.578 C15.495,11.306 16.294,11.12 17.465,11.066 C17.6784333,11.0562889 17.8654379,11.0479148 18.0465719,11.0407178 L18.3164397,11.0307852 C18.8576485,11.0126055 19.438534,11.0042999 20.6141669,11.0015496 L23.096,11.001 Z M22,12.982 L21.8503776,12.98201 L21.8503776,12.98201 L20.9235319,12.9827092 C19.6930163,12.9846588 19.0759347,12.9910287 18.5428841,13.0066446 L18.3008997,13.014526 L18.3008997,13.014526 L18.1000172,13.0221729 C17.9308621,13.0289727 17.755,13.0368621 17.555,13.046 C16.483,13.095 15.9,13.275 15.513,13.425 C15.0351275,13.60135 14.6028635,13.8825779 14.248,14.248 C13.863,14.633 13.625,14.999 13.425,15.513 C13.274,15.9 13.095,16.483 13.046,17.555 C13.0368621,17.755 13.0289727,17.9308621 13.0221729,18.1000172 L13.014526,18.3008997 L13.0066446,18.5428841 C12.9910287,19.0759347 12.9846588,19.6930163 12.9827092,20.9235319 L12.9827092,23.0764681 C12.9846588,24.3069837 12.9910287,24.9240653 13.0066446,25.4571159 L13.014526,25.6991003 L13.014526,25.6991003 L13.0221729,25.8999828 C13.0289727,26.0691379 13.0368621,26.245 13.046,26.445 C13.095,27.518 13.275,28.1 13.425,28.488 C13.6014825,28.9655143 13.8827025,29.3974245 14.248,29.752 C14.633,30.137 14.999,30.375 15.513,30.575 C15.9,30.726 16.483,30.905 17.555,30.954 C17.755,30.9631379 17.9308621,30.9710273 18.1000172,30.9778271 L18.3008997,30.985474 L18.5428841,30.9933554 C19.0759347,31.0089713 19.6930163,31.0153412 20.9235319,31.0172908 L23.0764681,31.0172908 C24.3069837,31.0153412 24.9240653,31.0089713 25.4571159,30.9933554 L25.6991003,30.985474 L25.6991003,30.985474 L25.8999828,30.9778271 C26.0691379,30.9710273 26.245,30.9631379 26.445,30.954 C27.517,30.905 28.1,30.725 28.487,30.575 C28.9648725,30.39865 29.3971365,30.1174221 29.752,29.752 C30.137,29.368 30.375,29.001 30.575,28.488 C30.726,28.1 30.904,27.517 30.954,26.445 C30.9631379,26.245 30.9710273,26.0691379 30.9778271,25.8999828 L30.985474,25.6991003 L30.9933554,25.4571159 C31.0089713,24.9240653 31.0153412,24.3069837 31.0172908,23.0764681 L31.0172908,20.9235319 C31.0153412,19.6930163 31.0089713,19.0759347 30.9933554,18.5428841 L30.985474,18.3008997 L30.985474,18.3008997 L30.9778271,18.1000172 C30.9710273,17.9308621 30.9631379,17.755 30.954,17.555 C30.905,16.483 30.725,15.9 30.575,15.513 C30.376,14.999 30.137,14.633 29.752,14.248 C29.367,13.863 29.001,13.625 28.487,13.425 C28.1,13.274 27.517,13.096 26.445,13.046 C26.245,13.0368621 26.0691379,13.0289727 25.8999828,13.0221729 L25.6991003,13.014526 L25.4571159,13.0066446 C24.9240653,12.9910287 24.3069837,12.9846588 23.0764681,12.9827092 L22.2947316,12.9820405 L22,12.982 Z M22.022,16.369 C25.1440656,16.369 27.6749999,18.8999344 27.6749999,22.022 C27.6749999,25.1440656 25.1440656,27.675 22.022,27.675 C20.0023776,27.675 18.1361695,26.5975443 17.1263583,24.8485 C16.1165471,23.0994557 16.1165471,20.9445443 17.1263583,19.1955 C18.1361695,17.4464557 20.0023776,16.369 22.022,16.369 Z M22.022,18.352 C19.995115,18.352 18.352,19.995115 18.352,22.022 C18.352,24.048885 19.995115,25.692 22.022,25.692 C24.048885,25.692 25.692,24.048885 25.692,22.022 C25.692,19.995115 24.048885,18.352 22.022,18.352 Z M27.849,14.797 C28.572493,14.797 29.159,15.383507 29.159,16.107 C29.159,16.830493 28.572493,17.417 27.849,17.417 C27.3725325,17.4301681 26.9265131,17.1834988 26.6843968,16.7729207 C26.4422804,16.3623426 26.4422804,15.8526574 26.6843968,15.4420793 C26.9265131,15.0315012 27.3725325,14.7848319 27.849,14.798 L27.849,14.798 Z"/></svg>