<?xml version="1.0" encoding="UTF-8"?>
<svg width="24px" height="24px" viewBox="0 0 24 24" version="1.1" xmlns="http://www.w3.org/2000/svg" xmlns:xlink="http://www.w3.org/1999/xlink">
    <title>instagram-icon</title>
    <g id="instagram-icon" stroke="none" stroke-width="1" fill="none" fill-rule="evenodd">
        <path d="M12,0 C18.627417,0 24,5.372583 24,12 C24,18.627417 18.627417,24 12,24 C5.372583,24 0,18.627417 0,12 C0,5.372583 5.372583,0 12,0 Z M13.2369249,6.50194527 L11.3494305,6.50113078 C10.8378254,6.50292932 10.5616723,6.50712999 10.3066223,6.51551116 L10.0881767,6.52376028 C10.0137513,6.52687891 9.93604917,6.53038028 9.85007099,6.53430587 C9.24333177,6.56201541 8.8289611,6.65836168 8.46641174,6.79928308 C8.09151921,6.94492685 7.77364513,7.13984314 7.45674551,7.4567414 C7.13984589,7.77363965 6.94492877,8.09156234 6.79925938,8.46640328 C6.65831239,8.82900105 6.56196571,9.24336994 6.53428103,9.85010654 C6.51116882,10.3567823 6.50277069,10.5759968 6.50061332,11.5308919 L6.50061332,11.5308919 L6.50061332,12.8697224 C6.50277069,13.8246516 6.51116882,14.04388 6.53428103,14.550535 C6.56196571,15.1572966 6.65831239,15.5716405 6.79925938,15.9342632 C6.94492877,16.3090792 7.13984589,16.6270019 7.45674551,16.9439001 C7.77364513,17.2607984 8.09151921,17.4557147 8.46641174,17.6013584 C8.8289611,17.7422798 9.24333177,17.8386261 9.85007099,17.8663606 C9.95815784,17.8712868 10.0531651,17.8755448 10.1450256,17.8792167 L10.3274939,17.885803 C10.6344249,17.8955583 10.9799678,17.8994062 11.7320031,17.9003782 L11.7320031,17.9003782 L12.8697325,17.9000265 C13.4426821,17.8987289 13.750797,17.8951816 14.0150549,17.8875636 L14.0150549,17.8875636 L14.1871545,17.8818619 C14.3007893,17.8776321 14.4154611,17.8725183 14.5505696,17.8663606 C15.1573088,17.8386261 15.5716795,17.7422798 15.9342289,17.6013584 C16.3090964,17.4557147 16.6269955,17.2607984 16.9438951,16.9439001 C17.2607947,16.6270019 17.4557118,16.3090792 17.6013812,15.9342632 C17.7423282,15.5716405 17.8386749,15.1572966 17.8663596,14.550535 C17.871698,14.4336146 17.8762509,14.332001 17.8801231,14.2331204 L17.8869908,14.0352777 C17.8950201,13.7664113 17.8987046,13.4573712 17.900029,12.8697224 L17.900029,12.8697224 L17.900029,11.5308919 C17.8978769,10.5759968 17.8894926,10.3567823 17.8663596,9.85010654 C17.8386749,9.24336994 17.7423282,8.82900105 17.6013812,8.46640328 C17.4557118,8.09156234 17.2607947,7.77363965 16.9438951,7.4567414 C16.6269955,7.13984314 16.3090964,6.94492685 15.9342289,6.79928308 C15.5716795,6.65836168 15.1573088,6.56201541 14.5505696,6.53430587 C14.4154611,6.52813708 14.3007893,6.52301587 14.1871545,6.51878126 L14.1871545,6.51878126 L14.0150549,6.51307419 C13.7801589,6.50629772 13.5106106,6.50274579 13.0512101,6.50113078 Z M12.6603942,7.52728946 L13.0355826,7.52808796 C13.53684,7.52975458 13.8053461,7.53370704 14.0548257,7.54186003 L14.2689907,7.54992166 C14.342149,7.55298154 14.418739,7.55642898 14.5037455,7.56030863 C15.059513,7.5856445 15.3613459,7.67854269 15.5622098,7.75659916 C15.8282875,7.85999149 16.0182074,7.98354758 16.217647,8.18298635 C16.4171616,8.38247509 16.5406932,8.57234419 16.644061,8.83842079 C16.7220928,9.03928376 16.8149664,9.34114041 16.8403524,9.89688046 C16.8631939,10.3978094 16.8710264,10.6064708 16.8730027,11.5429265 L16.8730027,11.5429265 L16.8730027,12.8576858 C16.8710264,13.7941693 16.8631939,14.0028238 16.8403524,14.5037111 C16.8149664,15.0595261 16.7220928,15.3613578 16.644061,15.5622207 C16.5406932,15.8282474 16.4171616,16.0181664 16.217647,16.2176552 C16.0182074,16.4171189 15.8282875,16.54065 15.5622098,16.6440673 C15.3613459,16.7220988 15.059513,16.814997 14.5037455,16.8403079 C14.403576,16.8448845 14.3150951,16.8488587 14.230142,16.8523041 L14.230142,16.8523041 L14.0625215,16.8585118 C13.7549745,16.86868 13.4217112,16.8723999 12.6604304,16.8733038 L12.6604304,16.8733038 L11.7402102,16.8733038 C10.9789294,16.8723999 10.6456661,16.86868 10.3381191,16.8585118 L10.1704986,16.8523041 C10.0855455,16.8488587 9.99706464,16.8448845 9.89689508,16.8403079 C9.34112765,16.814997 9.03929469,16.7220988 8.83843086,16.6440673 C8.57235311,16.54065 8.38243322,16.4171189 8.18299359,16.2176552 C7.98352898,16.0181664 7.85999734,15.8282474 7.75657958,15.5622207 C7.67854776,15.3613578 7.58564918,15.0595261 7.56028821,14.5037111 C7.55501709,14.3881217 7.55054434,14.288095 7.54675784,14.191095 L7.54006661,13.9974161 C7.53227636,13.7346533 7.52883451,13.4339834 7.52761474,12.8576858 L7.52761474,12.8576858 L7.52761474,11.5429265 C7.52959686,10.6064708 7.53744669,10.3978094 7.56028821,9.89688046 C7.58564918,9.34114041 7.67854776,9.03928376 7.75657958,8.83842079 C7.85999734,8.57234419 7.98352898,8.38247509 8.18299359,8.18298635 C8.38243322,7.98354758 8.57235311,7.85999149 8.83843086,7.75659916 C9.03929469,7.67854269 9.34112765,7.5856445 9.89689508,7.56030863 C10.3644308,7.53897053 10.5773679,7.53070693 11.365058,7.52808796 L11.365058,7.52808796 L11.7402464,7.52728946 L11.7402464,7.52728946 L12.6603942,7.52728946 Z M11.9997981,8.99961682 C10.3428646,8.99961682 8.99961672,10.3428705 8.99961672,11.9998112 C8.99961672,13.6567776 10.3428646,14.9999545 11.9997981,14.9999545 C13.6567317,14.9999545 14.9999539,13.6567776 14.9999539,11.9998112 C14.9999539,10.3428705 13.6567317,8.99961682 11.9997981,8.99961682 Z M11.9997971,10.1996843 C12.9939816,10.1996843 13.7998864,11.0056129 13.7998864,11.9997975 C13.7998864,12.9939583 12.9939816,13.7998869 11.9997971,13.7998869 C11.0056127,13.7998869 10.1996842,12.9939583 10.1996842,11.9997975 C10.1996842,11.0056129 11.0056127,10.1996843 11.9997971,10.1996843 Z M14.9999429,8.39958306 C14.6686011,8.39958306 14.3999202,8.6682032 14.3999202,8.99961682 C14.3999202,9.3309866 14.6686011,9.59965058 14.9999429,9.59965058 C15.3313505,9.59965058 15.5999876,9.3309866 15.5999876,8.99961682 C15.5999876,8.6682032 15.3313505,8.39958306 14.9999429,8.39958306 Z" id="Combined-Shape" fill="#000000"></path>
    </g>
</svg>