<?xml version="1.0" encoding="UTF-8"?>
<svg width="24px" height="24px" viewBox="0 0 24 24" version="1.1" xmlns="http://www.w3.org/2000/svg" xmlns:xlink="http://www.w3.org/1999/xlink">
    <title>linkedin-icon</title>
    <g id="linkedin-icon" stroke="none" stroke-width="1" fill="none" fill-rule="evenodd">
        <path d="M12,0 C18.627417,0 24,5.372583 24,12 C24,18.627417 18.627417,24 12,24 C5.372583,24 0,18.627417 0,12 C0,5.372583 5.372583,0 12,0 Z M13.5728333,9.5726087 L13.5728333,8.26086957 L10.6748333,8.26086957 L10.6748333,18 L13.5734167,18 L13.5734167,12.8875652 C13.5734167,10.0449565 17.0903333,9.81243478 17.0903333,12.8875652 L17.0903333,18 L20,18 L20,11.8333043 C20,7.03678261 14.7955,7.21147826 13.5728333,9.5726087 Z M8.91666667,8.26086957 L6,8.26086957 L6,18 L8.91666667,18 L8.91666667,8.26086957 Z M7.45833333,4 C6.65916667,4 6.01166667,4.68173913 6.01166667,5.52173913 C6.01166667,6.36234783 6.65916667,7.04347826 7.45833333,7.04347826 C8.2575,7.04347826 8.905,6.36234783 8.905,5.52173913 C8.905,4.68173913 8.2575,4 7.45833333,4 Z" id="Combined-Shape" fill="#000000"></path>
    </g>
</svg>