<svg xmlns="http://www.w3.org/2000/svg" width="44" height="44" viewBox="0 0 44 44"><path d="M22,0 C34.15,0 44,9.85 44,22 C44,34.15 34.15,44 22,44 C9.85,44 0,34.15 0,22 C0,9.85 9.85,0 22,0 Z M22,2 C10.954,2 2,10.954 2,22 C2,33.046 10.954,42 22,42 C33.046,42 42,33.046 42,22 C42,10.954 33.046,2 22,2 Z M23.8183333,18.9608696 C25.565,15.5878261 33,15.3382609 33,22.1904348 L33,22.1904348 L33,31 L28.8433333,31 L28.8433333,23.6965217 C28.8433333,19.3034783 23.8191667,19.6356522 23.8191667,23.6965217 L23.8191667,23.6965217 L23.8191667,31 L19.6783333,31 L19.6783333,17.0869565 L23.8183333,17.0869565 Z M17.1666667,17.0869565 L17.1666667,31 L13,31 L13,17.0869565 L17.1666667,17.0869565 Z M15.0833333,11 C16.225,11 17.15,11.973913 17.15,13.173913 C17.15,14.3747826 16.225,15.3478261 15.0833333,15.3478261 C13.9416667,15.3478261 13.0166667,14.3747826 13.0166667,13.173913 C13.0166667,11.973913 13.9416667,11 15.0833333,11 Z"/></svg>