<svg xmlns="http://www.w3.org/2000/svg" width="198" height="46"><path d="M22.925 0C33.81.008 45.27 4.924 45.27 4.924v40.454H0v-20.87h11.462v9.453H33.81V12.985a44.002 44.002 0 0 0-11.175-1.526 43.981 43.981 0 0 0-11.174 1.526l-.023.005-11.44-8.066S11.44.008 22.349.008c.097-.008.192-.005.288-.005.097 0 .192-.003.289-.003Zm74.951 10c7.906 0 13.327 5.94 13.327 13.848s-5.42 13.848-13.327 13.848-13.286-5.94-13.286-13.848S89.97 10 97.876 10Zm61.562.001c4.054 0 7.225 1.405 9.473 3.773l-2.007 2.447c-2.009-2.246-4.819-3.209-7.747-3.209-3.17 0-5.499 1.724-5.499 4.252 0 6.023 15.853 2.57 15.853 12.564 0 3.854-2.647 7.868-9.872 7.868-4.616 0-8.068-1.766-10.276-4.255l2.007-2.569c1.726 2.007 4.616 3.853 8.387 3.853 4.78 0 6.304-2.569 6.304-4.656 0-3.493-4.06-4.232-8.07-5.348l-.573-.162c-3.711-1.076-7.212-2.605-7.212-7.094 0-4.413 3.934-7.464 9.232-7.464Zm-81.127.442v2.97h-8.509v23.801H66.47V13.413H58v-2.97h20.311Zm53.557 0 10.758 26.772h-3.813l-2.369-5.981h-13.326l-2.368 5.98h-3.814l10.798-26.771h4.134Zm65.633 0v2.97h-8.51v23.802h-3.33V13.413h-8.47v-2.97h20.31ZM97.876 12.97c-6.02 0-9.834 4.616-9.834 10.878 0 6.222 3.813 10.878 9.834 10.878 5.981 0 9.873-4.656 9.873-10.878 0-6.262-3.892-10.878-9.873-10.878Zm31.905.883-5.66 14.45h11.36l-5.7-14.45Z"/></svg>