<svg xmlns="http://www.w3.org/2000/svg" width="180" height="39" viewBox="0 0 180 39">
  <g fill="none" fill-rule="evenodd">
    <path fill="#000" d="M118.162742,6.0329802 L118.162742,38.4767822 L113.756371,38.4767822 L113.756371,6.0329802 L118.162742,6.0329802 Z M141.199621,13.3725881 L141.261315,17.5111822 L141.322282,21.6490535 L141.322282,30.9265584 C141.325185,30.946796 141.649621,33.6514099 144.105024,34.4652515 C144.454137,34.571499 144.76696,34.6307663 144.993411,34.6625683 C145.187927,34.6849743 145.390427,34.7008752 145.606718,34.7008752 L145.606718,34.7008752 L148.422121,34.7008752 C148.638411,34.7008752 148.840911,34.6849743 149.035427,34.6625683 C149.262605,34.6307663 149.574702,34.571499 149.923815,34.4652515 C152.377766,33.6521327 152.703653,30.9511327 152.706556,30.9272812 L152.706556,30.9272812 L152.706556,21.6490535 L152.767524,17.5111822 L152.829218,13.3725881 L157.235589,13.3725881 L157.357524,21.6490535 L157.357524,30.9243901 C157.357524,34.0431525 155.961073,35.999697 154.17196,37.0744594 C152.914137,37.9721426 151.055347,38.4766376 148.666718,38.4766376 L148.666718,38.4766376 L145.362121,38.4766376 C142.973492,38.4766376 141.114702,37.9721426 139.856879,37.0744594 C138.067766,35.999697 136.671315,34.0431525 136.671315,30.9243901 L136.671315,30.9243901 L136.671315,21.6490535 L136.79325,13.3725881 L141.199621,13.3725881 Z M168.754065,13.3196089 L177.139306,13.4258564 L177.139306,17.3230446 L168.754065,17.2023416 C167.041161,17.2023416 163.735839,17.8405495 163.735839,20.1808861 C163.735839,21.8822921 166.734871,22.7864802 169.9785,23.5844208 C172.793903,24.2226287 179.342855,25.7650248 179.342855,31.0304208 C179.342855,35.6048465 175.548339,38.5299059 169.427613,38.4764208 L160.614145,38.370896 L160.614145,34.4274505 L169.427613,34.5409257 C173.039226,34.4881634 174.87479,33.3707574 174.87479,31.0304208 C174.87479,29.0095495 171.937452,28.0518762 168.815758,27.3074208 C165.755032,26.6164505 159.267774,25.0740545 159.267774,20.1808861 C159.267774,16.1919059 163.245919,13.2661238 168.754065,13.3196089 Z M102.766137,34.6474624 C104.907992,34.6474624 106.621621,33.1578287 106.621621,31.2966901 L106.621621,27.9459178 L98.7270242,27.9459178 C96.5837177,27.9459178 94.8708145,29.4355515 94.8708145,31.2966901 C94.8708145,33.1578287 96.5837177,34.6474624 98.7270242,34.6474624 L102.766137,34.6474624 Z M102.766137,13.3726604 C107.356137,13.3726604 111.028718,16.6171851 111.028718,20.553403 L111.028718,38.4767099 L107.723395,38.4767099 L106.682589,37.4127891 C105.519847,38.1044822 104.173476,38.4767099 102.766137,38.4767099 L98.7270242,38.4767099 C94.1972661,38.4767099 90.4644435,35.2856703 90.4644435,31.2966901 C90.4644435,27.3604723 94.1362984,24.1166703 98.7270242,24.1166703 L106.621621,24.1166703 L106.621621,20.553403 C106.621621,18.7450267 104.907992,17.2019079 102.766137,17.2019079 L98.7270242,17.2019079 C97.1353306,17.2019079 95.6053306,18.106096 95.0544435,19.2762644 L91.2592016,17.6276208 C92.5446048,15.2345218 95.4217016,13.3726604 98.7270242,13.3726604 L102.766137,13.3726604 Z M127.674581,6.03326931 L127.674581,13.2660515 L134.468129,13.2660515 L134.468129,17.1495069 L127.674581,17.1495069 L127.674581,31.2435663 C127.674581,33.104705 129.38821,34.647101 131.530065,34.7005861 L134.468129,34.7490119 L134.468129,38.3809426 L131.530065,38.4763485 C125.526919,38.4763485 123.206516,34.2748733 123.206516,30.2858931 L123.206516,17.1495069 L120.391113,17.1495069 L120.391113,13.2660515 L123.206516,13.2660515 L123.206516,9.86251683 L127.674581,6.03326931 Z"/>
    <polygon fill="#48C6EC" points="27.069 0 57.981 0 30.925 38.477 .014 38.477"/>
    <polygon fill="#82C341" points="57.981 0 27.07 0 54.125 38.477 85.036 38.477"/>
    <polygon fill="#00B4AE" points="27.07 0 57.981 0 42.525 21.981"/>
  </g>
</svg>
