<svg xmlns="http://www.w3.org/2000/svg" width="44" height="44" viewBox="0 0 44 44"><path d="M22,0 C34.15,0 44,9.85 44,22 C44,34.15 34.15,44 22,44 C9.85,44 0,34.15 0,22 C0,9.85 9.85,0 22,0 Z M22,2 C10.954,2 2,10.954 2,22 C2,33.046 10.954,42 22,42 C33.046,42 42,33.046 42,22 C42,10.954 33.046,2 22,2 Z M23.0160872,11 C27.8329009,11 31,14.6519734 31,18.5535754 C31,23.7403023 28.256357,27.6141678 24.1982356,27.6141678 C22.8396471,27.6141678 21.5604567,26.8467911 21.1193565,25.9684683 C21.1193565,25.9684683 20.3871303,29.0102386 20.2283342,29.6019508 C19.68137,31.6821888 18.0757654,33.7624269 17.9522574,33.9288459 C17.8640374,34.0490374 17.6699533,34.0120554 17.6523093,33.8548819 C17.6170213,33.5960078 17.2023871,30.9702851 17.6875973,28.8345741 C17.7889372,28.394583 18.0803359,27.1033978 18.3887912,25.7334893 L18.5629558,24.9597048 C18.9489175,23.244364 19.3108459,21.6323277 19.3108459,21.6323277 C19.3108459,21.6323277 18.9050337,20.790987 18.9050337,19.5428442 C18.9050337,17.5827977 19.9901401,16.1220083 21.3399066,16.1220083 C22.486767,16.1220083 23.0425532,17.0280675 23.0425532,18.1097913 C23.0425532,19.3117066 22.3103269,21.1238251 21.9309808,22.797261 C21.6133887,24.1933319 22.601453,25.3397742 23.9247535,25.3397742 C26.3155163,25.3397742 27.9211209,22.1223394 27.9211209,18.3131924 C27.9211209,15.4193501 26.0596783,13.2466571 22.6720291,13.2466571 C18.8432797,13.2466571 16.4613389,16.2421998 16.4613389,19.5798262 C16.4613389,20.7262685 16.778931,21.5398727 17.2906072,22.1685669 C17.5288012,22.4644229 17.5640893,22.575369 17.4758692,22.9082071 C17.4141152,23.1578356 17.2817852,23.7403023 17.2200311,23.9714398 C17.1318111,24.3042779 16.875973,24.4244695 16.5848469,24.3042779 C14.8204463,23.5553922 14,21.5306272 14,19.2562336 C14,15.5025597 17.0259471,11 23.0160872,11 Z"/></svg>