<?xml version="1.0" encoding="UTF-8"?>
<svg width="24px" height="24px" viewBox="0 0 24 24" version="1.1" xmlns="http://www.w3.org/2000/svg" xmlns:xlink="http://www.w3.org/1999/xlink">
    <title>pinterest-icon</title>
    <g id="pinterest-icon" stroke="none" stroke-width="1" fill="none" fill-rule="evenodd">
        <path d="M12,0 C18.627417,0 24,5.372583 24,12 C24,18.627417 18.627417,24 12,24 C5.372583,24 0,18.627417 0,12 C0,5.372583 5.372583,0 12,0 Z M12.646082,5.4 C8.6291645,5.4 6.6,8.33645195 6.6,10.7845002 C6.6,12.2678004 7.15018163,13.5882993 8.33336793,14.076703 C8.52859367,14.1550888 8.70015568,14.076703 8.759315,13.8596347 C8.80072652,13.7088928 8.88946549,13.3290232 8.93087701,13.166222 C8.99003633,12.9491537 8.9663726,12.8767976 8.80664245,12.683848 C8.46351842,12.27383 8.25054489,11.7432186 8.25054489,10.9955388 C8.25054489,8.81882599 9.84784639,6.86521114 12.4153607,6.86521114 C14.6870784,6.86521114 15.9353399,8.28218487 15.9353399,10.1694733 C15.9353399,12.6536996 14.8586404,14.7520266 13.2554229,14.7520266 C12.3680332,14.7520266 11.7054489,14.0043469 11.9184224,13.0938659 C12.1728075,12.0024946 12.6638298,10.8206782 12.6638298,10.0368204 C12.6638298,9.3313484 12.2911261,8.74044021 11.522055,8.74044021 C10.6169175,8.74044021 9.88925791,9.69312893 9.88925791,10.9714201 C9.88925791,11.7854263 10.1613908,12.3341268 10.1613908,12.3341268 C10.1613908,12.3341268 9.23850545,16.3318016 9.07285937,17.031244 C8.74748313,18.424099 9.02553191,20.1365268 9.04919564,20.3053577 C9.0610275,20.4078622 9.191178,20.4319809 9.25033731,20.3535951 C9.33316035,20.245061 10.4098599,18.888384 10.7766476,17.531707 C10.8831344,17.1458078 11.3741567,15.1620446 11.3741567,15.1620446 C11.6699533,15.7348637 12.5277634,16.2353268 13.4388168,16.2353268 C16.1601453,16.2353268 18,13.7088928 18,10.3262449 C18,7.78172181 15.8761806,5.4 12.646082,5.4 Z" id="Combined-Shape" fill="#000000"></path>
    </g>
</svg>