<svg xmlns="http://www.w3.org/2000/svg" width="44" height="44" viewBox="0 0 44 44"><path d="M22,0 C34.15,0 44,9.85 44,22 C44,34.15 34.15,44 22,44 C9.85,44 0,34.15 0,22 C0,9.85 9.85,0 22,0 Z M22,2 C10.954,2 2,10.954 2,22 C2,33.046 10.954,42 22,42 C33.046,42 42,33.046 42,22 C42,10.954 33.046,2 22,2 Z M26.539,14 C27.7445343,14.0042396 28.8899484,14.5270352 29.683,15.435 C30.6531366,15.2328306 31.5795705,14.8596836 32.419,14.333 C32.1101106,15.3707399 31.4381965,16.262721 30.526,16.846 L30.527,16.845 L30.8918338,16.7907741 C31.4989988,16.6868306 32.0926336,16.5152668 32.6616402,16.27929 L33,16.13 C32.429323,17.0361961 31.7015947,17.8333448 30.851,18.484 C30.859,18.677 30.861,18.874 30.861,19.071 C30.861,25.076 26.53,32 18.604,32 C16.2477927,31.9973769 13.9468243,31.2862509 12,29.959 C12.337,30.001 12.68,30.021 13.028,30.021 C15.046,30.021 16.903,29.296 18.379,28.077 C16.493,28.042 14.902,26.726 14.354,24.922 C14.616,24.975 14.887,25.002 15.164,25.002 C15.5487129,25.0034842 15.9316374,24.9495986 16.301,24.842 C14.327,24.427 12.843,22.589 12.843,20.387 L12.843,20.387 L12.843,20.331 C13.4368742,20.6792448 14.1079903,20.8744286 14.796,20.899 C13.639,20.083 12.879,18.692 12.879,17.116 C12.8770412,16.3172955 13.0776241,15.5311342 13.462,14.831 C15.588,17.582 18.762,19.388 22.342,19.578 C22.268,19.247 22.232,18.9 22.232,18.544 C22.232,16.035 24.159,14 26.539,14 Z"/></svg>