<svg xmlns="http://www.w3.org/2000/svg" width="44" height="44" viewBox="0 0 44 44"><path d="M22,0 C34.15,0 44,9.85 44,22 C44,34.15 34.15,44 22,44 C9.85,44 0,34.15 0,22 C0,9.85 9.85,0 22,0 Z M22,2 C10.954,2 2,10.954 2,22 C2,33.046 10.954,42 22,42 C33.046,42 42,33.046 42,22 C42,10.954 33.046,2 22,2 Z M22.1541522,12.9987249 C22.7076241,13.0003336 24.6660099,13.0107903 26.74084,13.0787583 L27.3086218,13.0987575 C29.2991863,13.1740014 31.2891227,13.3056781 32.1577965,13.5361123 C33.2772315,13.8324715 34.1570347,14.7024995 34.4566428,15.8096125 C34.9672144,17.6997113 34.9983317,21.52811 35.0002208,21.9594696 L35.0002409,22.0390864 C34.998567,22.4704479 34.9692738,26.2988635 34.4566428,28.1889793 C34.1570347,29.2960833 33.2772315,30.1661051 32.1577965,30.4624129 C31.3304881,30.6818866 29.4861615,30.8117792 27.5928628,30.8886544 L27.0243721,30.910163 C25.0362889,30.9801322 23.1009412,30.9956809 22.3389636,30.9991362 L22.1541522,30.9998309 C22.1289944,30.999904 22.1067393,30.9999589 22.0875079,31 L21.9111596,31 C21.8919284,30.9999589 21.8696736,30.999904 21.8445161,30.9998309 L21.6597071,30.9991362 C20.0994868,30.9920611 13.619682,30.9342813 11.8408971,30.4624129 C10.7214621,30.1661051 9.84174361,29.2960833 9.5420836,28.1889793 C9.04501513,26.3561397 9.00240926,22.7006932 8.99875733,22.0875109 L8.99875733,21.9110453 C9.00240926,21.2978658 9.04501513,17.6424356 9.5420836,15.8096125 C9.84174361,14.7024995 10.7214621,13.8324715 11.8408971,13.5361123 C13.7024162,13.0423247 20.7124292,13.0020155 21.8445161,12.9987249 Z M19.3966922,18.1427126 L19.3966922,25.8565002 L26.1518911,21.9996379 L19.3966922,18.1427126 Z"/></svg>