<svg xmlns="http://www.w3.org/2000/svg" width="36" height="36" viewBox="0 0 36 36">
  <path fill-rule="evenodd" d="M8.18073167,0 L0,8.18073167 L0.819268334,9 L9.81926833,17.9876628 L0,27.8069311 L0.819268334,28.6141707 L8.18073167,35.975634 L18,26.1563657 L27.8192683,35.975634 L35.1807317,28.6141707 L36,27.8069311 L26.1807317,17.9876628 L35.1807317,9 L36,8.18073167 L27.8192683,0 L18,9.81926833 L8.18073167,0 Z M8.18073167,3.26504455 L18,13.0843129 L27.8192683,3.26504455 L32.7229267,8.16870288 L22.9036583,17.9879712 L23.7229267,18.7952108 L32.7229267,27.7952108 L27.8192683,32.7108208 L18,22.8915524 L8.18073167,32.7108208 L3.27707334,27.7952108 L12.2770733,18.7952108 L13.0963417,17.9879712 L3.27707334,8.16870288 L8.18073167,3.26504455 Z"/>
</svg>
