<svg xmlns="http://www.w3.org/2000/svg" width="24" height="24" viewBox="0 0 24 24">
  <path fill-rule="evenodd" d="M9.80180779,19.5968651 C11.9934627,19.598397 14.1221944,18.8622387 15.8441586,17.5047276 L22.339431,24 L24,22.339431 L17.5047276,15.8441586 C19.3397655,13.5009943 20.0116253,10.4506298 19.3275021,7.55365523 C18.6449069,4.65648477 16.6813192,2.22751618 13.9923516,0.951029417 C11.3033057,-0.323850962 8.17959607,-0.307003531 5.50438072,0.996944544 C2.82916537,2.30089262 0.891710787,4.74965107 0.238187178,7.65442246 C-0.413808409,10.5577442 0.288694209,13.6003903 2.14974373,15.9233768 C4.00926915,18.2466375 6.82549359,19.5980366 9.80200369,19.5965086 L9.80180779,19.5968651 Z M9.80180779,2.3576332 C11.7761308,2.3576332 13.6693119,3.14123465 15.0652587,4.53855275 C16.4625768,5.93434284 17.2461783,7.82752394 17.2461783,9.80200369 C17.2461783,11.7764834 16.4625768,13.6695078 15.0652587,15.0654546 C13.6694686,16.4627727 11.7762875,17.2463742 9.80180779,17.2463742 C7.82732804,17.2463742 5.93430366,16.4627727 4.53835685,15.0654546 C3.14103875,13.6696645 2.3574373,11.7764834 2.3574373,9.80200369 C2.3574373,7.82752394 3.14103875,5.93449956 4.53835685,4.53855275 C5.93414694,3.14123465 7.82732804,2.3576332 9.80180779,2.3576332 Z"/>
</svg>
