<?xml version="1.0" encoding="UTF-8"?>
<svg width="60px" height="60px" viewBox="0 0 60 60" version="1.1" xmlns="http://www.w3.org/2000/svg" xmlns:xlink="http://www.w3.org/1999/xlink">
    <title>accordion</title>
    <g id="accordion" stroke="none" stroke-width="1" fill="none" fill-rule="evenodd">
        <g id="Group" transform="translate(29.500418, 29.640320) scale(-1, 1) translate(-29.500418, -29.640320) translate(9.000000, 10.000000)" fill="#43536D" fill-rule="nonzero">
            <path d="M11.2104671,0.740319513 C11.7187089,1.20001411 12.0061963,1.85504874 12.0004671,2.54031951 L12.0004671,9.39031951 C12.0138861,10.0709526 11.7376221,10.7252621 11.2404671,11.1903195 C10.7622205,11.6780319 10.1033578,11.9459211 9.42046707,11.9303195 L2.58046707,11.9303195 C1.89757637,11.9459211 1.23871364,11.6780319 0.760467066,11.1903195 C0.263312078,10.7252621 -0.012951952,10.0709526 0.00046706624,9.39031951 L0.00046706624,2.54031951 C-0.012951952,1.85968644 0.263312078,1.2053769 0.760467066,0.740319513 C1.24138374,0.256603994 1.89845294,-0.0105560106 2.58046707,0.000319513336 L9.39046707,0.000319513336 C10.0724812,-0.0105560106 10.7295504,0.256603994 11.2104671,0.740319513 Z M11.2104671,14.4103195 C11.7171154,14.8837151 12.0034219,15.5469313 12.0004897,16.2403195 L12.0004897,23.0003195 C12.0004897,24.4268409 10.8469778,25.5848117 9.42046707,25.5903195 L2.58046707,25.5903195 C1.89505255,25.5982949 1.23666459,25.3233637 0.760467066,24.8303195 C0.264872103,24.3517303 -0.0102800213,23.6891929 0.00046706624,23.0003195 L0.00046706624,16.2003195 C-0.0102800213,15.5114461 0.264872103,14.8489088 0.760467066,14.3703195 C1.23666459,13.8772753 1.89505255,13.6023441 2.58046707,13.6103195 L9.39046707,13.6103195 C10.0818939,13.6127283 10.7411867,13.9025274 11.2104671,14.4103195 Z M11.2104671,28.0603195 C11.7171154,28.5337151 12.0034219,29.1969313 12.0004671,29.8903195 L12.0004671,36.7403195 C12.0138861,37.4209526 11.7376221,38.0752621 11.2404671,38.5403195 C10.7595504,39.024035 10.1024812,39.291195 9.42046707,39.2803195 L2.58046707,39.2803195 C1.89845294,39.291195 1.24138374,39.024035 0.760467066,38.5403195 C0.263312078,38.0752621 -0.012951952,37.4209526 0.00046706624,36.7403195 L0.00046706624,29.8903195 C-0.0102800213,29.2014461 0.264872103,28.5389088 0.760467066,28.0603195 C1.2376895,27.5699469 1.8963123,27.2985364 2.58046707,27.3103195 L9.39046707,27.3103195 C10.0746218,27.2985364 10.7332446,27.5699469 11.2104671,28.0603195 L11.2104671,28.0603195 Z M10.2104671,2.54031951 C10.2076055,2.34093777 10.1330603,2.14925007 10.0004671,2.00031951 C9.84696764,1.82467486 9.62369038,1.72584723 9.39046707,1.73031951 L2.58046707,1.73031951 C2.35771048,1.73450718 2.1470782,1.83256014 2.00046707,2.00031951 C1.84151698,2.15559288 1.75146438,2.36811701 1.75046707,2.59031951 L1.75046707,9.39031951 C1.7435444,9.61990159 1.83441601,9.84162831 2.00046707,10.0003195 C2.15396649,10.1759642 2.37724375,10.2747918 2.61046707,10.2703195 L9.39046707,10.2703195 C9.62369038,10.2747918 9.84696764,10.1759642 10.0004671,10.0003195 C10.161355,9.84637629 10.2517733,9.6329891 10.250481,9.41031951 L10.2104671,2.54031951 Z M10.2104671,16.2403195 C10.2160054,16.0105802 10.1271781,15.7886032 9.96468074,15.6261058 C9.80218334,15.4636084 9.58020634,15.3747812 9.35046707,15.3803195 L2.58046707,15.3803195 C2.35072779,15.3747812 2.12875079,15.4636084 1.9662534,15.6261058 C1.803756,15.7886032 1.71492875,16.0105802 1.72046707,16.2403195 L1.72046707,23.0003195 C1.71492875,23.2300588 1.803756,23.4520358 1.9662534,23.6145332 C2.12875079,23.7770306 2.35072779,23.8658578 2.58046707,23.8603195 L9.39046707,23.8603195 C9.62020634,23.8658578 9.84218334,23.7770306 10.0046807,23.6145332 C10.1671781,23.4520358 10.2560054,23.2300588 10.2504671,23.0003195 L10.2104671,16.2403195 Z M10.2104671,29.8903195 C10.2241108,29.6624423 10.1444201,29.4388267 9.98973551,29.2709374 C9.83505091,29.103048 9.61869699,29.0053468 9.39046707,29.0003195 L2.58046707,29.0003195 C2.35072779,28.9947812 2.12875079,29.0836084 1.9662534,29.2461058 C1.803756,29.4086032 1.71492875,29.6305802 1.72046707,29.8603195 L1.72046707,36.7103195 C1.72146438,36.932522 1.81151698,37.1450461 1.97046707,37.3003195 C2.12396649,37.4759642 2.34724375,37.5747918 2.58046707,37.5703195 L9.39046707,37.5703195 C9.62369038,37.5747918 9.84696764,37.4759642 10.0004671,37.3003195 C10.1594172,37.1450461 10.2494697,36.932522 10.2504671,36.7103195 L10.2104671,29.8903195 Z M8.21046707,5.39031951 C8.36999996,5.5493 8.45991533,5.76509688 8.46046707,5.99031951 C8.46362813,6.20756158 8.37242745,6.41549914 8.21046707,6.56031951 C8.06268347,6.71814263 7.85667255,6.80849829 7.64046707,6.81031951 L6.85046707,6.81031951 L6.85046707,7.67031951 C6.85313974,7.89748116 6.7647677,8.1162599 6.60507118,8.2778352 C6.44537465,8.43941051 6.22764444,8.53033524 6.00046707,8.53031951 C5.77072779,8.53585783 5.54875079,8.44703058 5.3862534,8.28453318 C5.223756,8.12203579 5.13492875,7.90005879 5.14046707,7.67031951 L5.14046707,6.81031951 L4.26046707,6.81031951 C4.03500894,6.8156123 3.8163049,6.73315012 3.65046707,6.58031951 C3.48582344,6.43320954 3.3943653,6.22102664 3.40046707,6.00031951 C3.39576702,5.76417177 3.49437625,5.53773575 3.67046707,5.38031951 C3.82916778,5.22775474 4.04033174,5.14185753 4.26046707,5.14031951 L5.13046707,5.14031951 L5.13046707,4.26031951 C5.1220877,4.02843522 5.21738266,3.80485859 5.39046707,3.65031951 C5.54673298,3.48964764 5.76133655,3.39900336 5.98546707,3.39900336 C6.20959758,3.39900336 6.42420115,3.48964764 6.58046707,3.65031951 C6.75611172,3.80381894 6.85493935,4.0270962 6.85046707,4.26031951 L6.85046707,5.13031951 L7.71046707,5.13031951 C7.92988872,5.12690572 8.13920505,5.22238334 8.28046707,5.39031951 L8.21046707,5.39031951 Z M8.28046707,19.0003195 C8.43999996,19.1593 8.52991533,19.3750969 8.53048103,19.6003195 C8.53177333,19.8229891 8.44135502,20.0363763 8.28046707,20.1903195 C8.14025325,20.3608375 7.93122954,20.4598487 7.71046707,20.4603195 L6.85046707,20.4603195 L6.85046707,21.3203195 C6.85140286,21.5400036 6.76081979,21.7501563 6.60046707,21.9003195 C6.43802804,22.0596303 6.21791245,22.1462332 5.99046707,22.1403195 C5.75998386,22.1466668 5.53660499,22.0601975 5.37046707,21.9003195 C5.21670821,21.7464692 5.13037559,21.537832 5.13046707,21.3203195 L5.13046707,20.5003195 L4.26046707,20.5003195 C4.03826456,20.4993222 3.82574043,20.4092696 3.67046707,20.2503195 C3.49367209,20.0976697 3.39459247,19.8738231 3.40046707,19.6403195 C3.38978514,19.3972636 3.48891944,19.1622786 3.67046707,19.0003195 C3.82916778,18.8477547 4.04033174,18.7618575 4.26046707,18.7603195 L5.13046707,18.7603195 L5.13046707,17.9003195 C5.13018968,17.6729201 5.22435453,17.4556166 5.39046707,17.3003195 C5.54379673,17.1343281 5.7594955,17.039933 5.98546707,17.039933 C6.21143863,17.039933 6.42713741,17.1343281 6.58046707,17.3003195 C6.74928019,17.4545842 6.84696624,17.6716643 6.85046707,17.9003195 L6.85046707,18.7603195 L7.71046707,18.7603195 C7.9258986,18.7558984 8.13308087,18.843133 8.28046707,19.0003195 L8.28046707,19.0003195 Z M8.28046707,32.6403195 C8.44651813,32.7990107 8.53738973,33.0207374 8.53046707,33.2503195 C8.53772483,33.4828928 8.44702336,33.7078325 8.28046707,33.8703195 C8.13165561,34.0254458 7.92542093,34.1122814 7.71046707,34.1103195 L6.85046707,34.1103195 L6.85046707,35.0003195 C6.85772483,35.2328928 6.76702336,35.4578325 6.60046707,35.6203195 C6.43904496,35.7823208 6.21915249,35.8724407 5.99046707,35.8703195 C5.75893858,35.875984 5.53534411,35.7858055 5.3725291,35.6210973 C5.20971408,35.4563891 5.12212644,35.231767 5.13046707,35.0003195 L5.13046707,34.1403195 L4.26046707,34.1403195 C4.03704506,34.1355845 3.82471912,34.0420171 3.67046707,33.8803195 C3.50165394,33.7260548 3.40396789,33.5089747 3.40046707,33.2803195 C3.40432514,33.0546225 3.50218841,32.8407732 3.67046707,32.6903195 C3.82092072,32.5220409 4.0347701,32.4241776 4.26046707,32.4203195 L5.13046707,32.4203195 L5.13046707,31.6003195 C5.1250689,31.3718915 5.22010231,31.1525836 5.39046707,31.0003195 C5.54673298,30.8396476 5.76133655,30.7490034 5.98546707,30.7490034 C6.20959758,30.7490034 6.42420115,30.8396476 6.58046707,31.0003195 C6.75611172,31.1538189 6.85493935,31.3770962 6.85046707,31.6103195 L6.85046707,32.4303195 L7.71046707,32.4303195 C7.92770913,32.4271584 8.13564669,32.5183591 8.28046707,32.6803195 L8.28046707,32.6403195 Z M15.6204671,6.54031951 C15.47274,6.39876316 15.3865474,6.20482997 15.3804671,6.00031951 C15.3688726,5.76887329 15.4557501,5.54332738 15.6196125,5.37946496 C15.7834749,5.21560254 16.0090208,5.12872506 16.2404671,5.14031951 L40.1404671,5.14031951 C40.3723514,5.13194015 40.595928,5.22723511 40.7504671,5.40031951 C40.91,5.5593 40.9999153,5.77509688 41.0005466,6.00031951 C41.0036281,6.21756158 40.9124274,6.42549914 40.7504671,6.57031951 C40.589045,6.73232082 40.3691525,6.82244069 40.1404671,6.82031951 L16.2404671,6.82031951 C16.0107439,6.82238163 15.7889283,6.73651752 15.6204671,6.58031951 L15.6204671,6.54031951 Z M40.7504671,19.0003195 C40.91,19.1593 40.9999153,19.3750969 41.000481,19.6003195 C41.0017733,19.8229891 40.911355,20.0363763 40.7504671,20.1903195 C40.5969676,20.3659642 40.3736904,20.4647918 40.1404671,20.4603195 L16.2404671,20.4603195 C16.0107278,20.4658578 15.7887508,20.3770306 15.6262534,20.2145332 C15.463756,20.0520358 15.3749287,19.8300588 15.3804671,19.6003195 C15.3688726,19.3688733 15.4557501,19.1433274 15.6196125,18.979465 C15.7834749,18.8156025 16.0090208,18.7287251 16.2404671,18.7403195 L40.1404671,18.7403195 C40.3713369,18.7372412 40.5928064,18.831638 40.7504671,19.0003195 L40.7504671,19.0003195 Z M40.7504671,32.6403195 C40.9165181,32.7990107 41.0073897,33.0207374 41.0004671,33.2503195 C41.0060054,33.4800588 40.9171781,33.7020358 40.7546807,33.8645332 C40.5921833,34.0270306 40.3702063,34.1158578 40.1404671,34.1103195 L16.2404671,34.1103195 C16.0066171,34.1137429 15.7819272,34.0195182 15.6204671,33.8503195 C15.4672706,33.6879935 15.3814807,33.4735187 15.3804671,33.2503195 C15.3820051,33.0301842 15.4679023,32.8190202 15.6204671,32.6603195 C15.7778833,32.4842287 16.0043193,32.3856195 16.2404671,32.3903195 L40.1404671,32.3903195 C40.3763266,32.3935553 40.599059,32.4994444 40.7504671,32.6803195 L40.7504671,32.6403195 Z" id="Shape"></path>
        </g>
    </g>
</svg>