<?xml version="1.0" encoding="UTF-8"?>
<svg width="60px" height="60px" viewBox="0 0 60 60" version="1.1" xmlns="http://www.w3.org/2000/svg" xmlns:xlink="http://www.w3.org/1999/xlink">
    <title>code</title>
    <g id="code" stroke="none" stroke-width="1" fill="none" fill-rule="evenodd">
        <g id="Group" transform="translate(16.000000, 17.000000)" fill="#43536D" fill-rule="nonzero" stroke="#43536D">
            <path d="M7.58374117,22.2880472 C7.41416184,22.3032619 7.24810449,22.2330497 7.14043601,22.1006092 L0.140880924,13.9002006 C0.0434100871,13.8008184 -0.00747291215,13.6645611 0.000889821927,13.5253248 C0.000732550084,13.3803715 0.0501525483,13.2397607 0.140880924,13.1270192 L7.14043601,4.9500403 C7.24798586,4.84056617 7.38645722,4.76695024 7.53707747,4.73917265 C7.68909457,4.73552243 7.83761808,4.78523797 7.95705077,4.87975108 C8.07928525,4.97731338 8.15540348,5.12169547 8.16703743,5.27805665 C8.1706724,5.43071153 8.12116456,5.57985817 8.02704632,5.69979195 L1.35413714,13.5253248 L8.02704632,21.3508576 C8.12116456,21.4707914 8.1706724,21.619938 8.16703743,21.7725929 C8.14927879,21.9205582 8.07375167,22.055392 7.95705077,22.1474687 C7.85981569,22.2480389 7.7228525,22.2996155 7.58374117,22.2880472 Z M8.77366553,26.973995 L8.54034703,26.973995 C8.40451442,26.8955616 8.29180675,26.7823811 8.21370113,26.6459786 C8.14303115,26.5060752 8.14303115,26.340717 8.21370113,26.2008136 L18.6663701,0.428100675 C18.7296637,0.261954218 18.8553187,0.127359875 19.0163478,0.0532248507 C19.1556668,-0.0177416169 19.320334,-0.0177416169 19.459653,0.0532248507 C19.6003278,0.12513895 19.7146852,0.239976181 19.7862989,0.381241197 C19.8569688,0.521144646 19.8569688,0.686502788 19.7862989,0.826406238 L9.33362994,26.6225489 C9.30770755,26.7424857 9.23104333,26.8451335 9.12364329,26.9037057 C9.02220046,26.9766134 8.89778965,27.0099288 8.77366553,26.9974247 L8.77366553,26.973995 Z M20.4395907,22.2880472 C20.2945677,22.2923548 20.1531514,22.2422338 20.0429492,22.1474687 C19.9329064,22.0529219 19.8655901,21.9177246 19.8562944,21.7725929 C19.8526595,21.619938 19.9021673,21.4707914 19.9962855,21.3508576 L26.6691947,13.5253248 L19.9729537,5.69979195 C19.8788354,5.57985817 19.8293276,5.43071153 19.8329626,5.27805665 C19.8445965,5.12169547 19.9207147,4.97731338 20.0429492,4.87975108 C20.1623819,4.78523797 20.3109054,4.73552243 20.4629225,4.73917265 C20.617119,4.75595883 20.759056,4.83141719 20.859564,4.9500403 L27.8591191,13.1270192 C27.9498475,13.2397607 27.9992674,13.3803715 27.9991102,13.5253248 C28.0074729,13.6645611 27.9565899,13.8008184 27.8591191,13.9002006 L20.859564,22.1006092 C20.7518955,22.2330497 20.5858382,22.3032619 20.4162588,22.2880472 L20.4395907,22.2880472 Z" id="Shape"></path>
        </g>
    </g>
</svg>