<?xml version="1.0" encoding="UTF-8"?>
<svg width="60px" height="60px" viewBox="0 0 60 60" version="1.1" xmlns="http://www.w3.org/2000/svg" xmlns:xlink="http://www.w3.org/1999/xlink">
    <title>download</title>
    <g id="download" stroke="none" stroke-width="1" fill="none" fill-rule="evenodd">
        <g id="Group" transform="translate(11.000000, 13.000000)" fill="#43536D" fill-rule="nonzero" stroke="#43536D" stroke-width="0.5">
            <path d="M31.54,9.92 C35.298,9.92 38.348,12.93 38.348,16.649 C38.348,20.367 35.298,23.378 31.54,23.378 L23.783,23.378 C23.3964007,23.378 23.083,23.0645993 23.083,22.678 C23.083,22.2914007 23.3964007,21.978 23.783,21.978 L31.54,21.978 C34.529,21.978 36.948,19.59 36.948,16.648 C36.948,13.708 34.528,11.32 31.54,11.32 L28.916,11.32 C28.5294007,11.32 28.216,11.0065993 28.216,10.62 C28.216,5.608 24.089,1.4 19.101,1.4 C14.861,1.4 11.271,4.112 10.266,8.02 C10.1861791,8.32914509 9.90728365,8.54510395 9.588,8.545 L8.213,8.545 C4.448,8.545 1.4,11.555 1.4,15.262 C1.4,18.969 4.448,21.978 8.213,21.978 L14.783,21.978 C15.1695993,21.978 15.483,22.2914007 15.483,22.678 C15.483,23.0645993 15.1695993,23.378 14.783,23.378 L8.213,23.378 C3.679,23.378 0,19.746 0,15.262 C0,10.777 3.68,7.145 8.213,7.145 L9.061,7.145 C10.402,2.897 14.42,0 19.1,0 C24.633,0 29.227,4.455 29.592,9.92 L31.539,9.92 L31.54,9.92 Z" id="Path"></path>
            <path d="M19.783,30.793 L22.955,27.663 C23.2327939,27.4114039 23.6594673,27.4232499 23.9228735,27.6898717 C24.1862798,27.9564935 24.1929481,28.3832792 23.938,28.658 L19.575,32.966 C19.3024468,33.2347663 18.8645532,33.2347663 18.592,32.966 L14.229,28.658 C13.9674854,28.3842565 13.9710011,27.9521989 14.2369358,27.6827473 C14.5028704,27.4132957 14.9348445,27.4041042 15.212,27.662 L18.383,30.792 L18.383,14.94 C18.383,14.5534007 18.6964007,14.24 19.083,14.24 C19.4695993,14.24 19.783,14.5534007 19.783,14.94 L19.783,30.794 L19.783,30.793 Z" id="Path"></path>
        </g>
    </g>
</svg>