<svg xmlns="http://www.w3.org/2000/svg" width="60" height="60" viewBox="0 0 60 60"><g fill="none" fill-rule="evenodd"><line x1="30.5" x2="30.5" y1="6.5" y2="46.5" stroke="#43536D" stroke-dasharray="2" stroke-linecap="square" stroke-opacity=".16"/><line x1="50.5" x2="50.5" y1="6.5" y2="46.5" stroke="#43536D" stroke-dasharray="2" stroke-linecap="square" stroke-opacity=".48"/><line x1="9.5" x2="9.5" y1="6.5" y2="46.5" stroke="#43536D" stroke-dasharray="2" stroke-linecap="square" stroke-opacity=".48"/><rect width="59" height="14" x=".5" y="18.5" fill="#A5ADB9" stroke="#43536D" rx="1"/><g fill="#43536D" fill-rule="nonzero" transform="translate(23.077 50.636)"><polygon points="0 4.364 0 0 2.797 0 2.797 .663 .791 .663 .791 1.848 2.605 1.848 2.605 2.511 .791 2.511 .791 4.364"/><path d="M6.26421079,0 L7.05512654,0 L7.05512654,2.85171786 C7.05512654,3.1636408 6.98147375,3.43813809 6.83416817,3.67520974 C6.6868626,3.91228138 6.48039731,4.09736772 6.21477231,4.23046875 C5.94914731,4.36356978 5.63892226,4.43012029 5.28409715,4.43012029 C4.92814012,4.43012029 4.6173491,4.36356978 4.3517241,4.23046875 C4.0860991,4.09736772 3.8799168,3.91228138 3.73317719,3.67520974 C3.58643757,3.43813809 3.51306777,3.1636408 3.51306777,2.85171786 L3.51306777,0 L4.30401681,0 L4.30401681,2.78523393 C4.30401681,2.96705211 4.34407252,3.12876753 4.42418393,3.27038019 C4.50429535,3.41199285 4.61771532,3.52307129 4.76444383,3.6036155 C4.91117235,3.68415971 5.08439012,3.72443182 5.28409715,3.72443182 C5.48438124,3.72443182 5.65795968,3.68415971 5.80483246,3.6036155 C5.95170524,3.52307129 6.06498649,3.41199285 6.14467621,3.27038019 C6.22436593,3.12876753 6.26421079,2.96705211 6.26421079,2.78523393 L6.26421079,0 Z"/><polygon points="7.914 4.364 7.914 0 8.705 0 8.705 3.701 10.628 3.701 10.628 4.364"/><polygon points="11.31 4.364 11.31 0 12.101 0 12.101 3.701 14.023 3.701 14.023 4.364"/></g></g></svg>