<svg xmlns="http://www.w3.org/2000/svg" width="60" height="60" viewBox="0 0 60 60"><g fill="none" fill-rule="evenodd"><path stroke="#43536D" stroke-dasharray="2" stroke-linecap="square" stroke-opacity=".16" d="M30.5 6.5v40"/><path stroke="#43536D" stroke-dasharray="2" stroke-linecap="square" stroke-opacity=".48" d="M50.5 6.5v40M9.5 6.5v40"/><rect width="59" height="14" x=".5" y="18.5" fill="#A5ADB9" stroke="#43536D" rx="1"/><g fill="#43536D" fill-rule="nonzero"><path d="M23.077 55v-4.364h2.797v.663h-2.006v1.185h1.814v.663h-1.814V55zM29.341 50.636h.791v2.852c0 .312-.074.586-.22.823a1.504 1.504 0 0 1-.62.555c-.266.134-.576.2-.93.2-.357 0-.668-.066-.933-.2a1.498 1.498 0 0 1-.619-.555 1.532 1.532 0 0 1-.22-.823v-2.852h.791v2.785c0 .182.04.344.12.485.08.142.194.253.34.334.147.08.32.12.52.12s.374-.04.52-.12a.85.85 0 0 0 .34-.334.972.972 0 0 0 .12-.485v-2.785ZM30.991 55v-4.364h.791v3.701h1.923V55zM34.387 55v-4.364h.791v3.701H37.1V55z"/></g></g></svg>