<?xml version="1.0" encoding="UTF-8"?>
<svg width="60px" height="60px" viewBox="0 0 60 60" version="1.1" xmlns="http://www.w3.org/2000/svg" xmlns:xlink="http://www.w3.org/1999/xlink">
    <title>hero</title>
    <g id="hero" stroke="none" stroke-width="1" fill="none" fill-rule="evenodd">
        <g id="Group" transform="translate(9.000000, 9.000000)" fill="#43536D" fill-rule="nonzero">
            <path d="M40.7507001,0.25036854 C40.9167511,0.409059745 41.0076227,0.630786465 41.0010686,0.86036854 L41.0010686,24.7603685 C41.0067655,24.9967845 40.9079173,25.2237692 40.7307001,25.3803685 C40.5741776,25.537479 40.3624497,25.6271942 40.1407001,25.6303685 C39.9163339,25.6256613 39.7020282,25.5363672 39.5407001,25.3803685 C39.3694009,25.2203629 39.274767,24.9946974 39.2807001,24.7603685 L39.2807001,1.76036854 L1.72070008,1.76036854 L1.72070008,25.0003685 L6.93070008,15.8203685 C7.10824623,15.6052694 7.35624485,15.4600131 7.63070008,15.4103685 C7.89641919,15.3526533 8.17033879,15.4638091 8.32070008,15.6903685 L13.5707001,21.6903685 L17.2207001,15.8303685 C17.3268357,15.6331873 17.5125988,15.4911332 17.7307001,15.4403685 C17.9540926,15.3669446 18.1990845,15.4040646 18.3907001,15.5403685 C18.5850668,15.6643583 18.7191054,15.8636048 18.7607001,16.0903685 C18.8012265,16.3099954 18.7622313,16.5368765 18.6507001,16.7303685 L14.3907001,23.5303685 C14.2781273,23.7916424 14.0148059,23.9552209 13.7307001,23.9403685 C13.6145277,23.983232 13.4868724,23.983232 13.3707001,23.9403685 C13.2387252,23.8960366 13.1235379,23.812264 13.0407001,23.7003685 L7.83070008,17.6703685 L1.72070008,28.4103685 L1.72070008,29.0003685 L19.6407001,29.0003685 C19.8704394,28.9948302 20.0924164,29.0836575 20.2549138,29.2461549 C20.4174111,29.4086523 20.5062384,29.6306293 20.5007001,29.8603685 C20.5102414,30.0904179 20.4189445,30.3131822 20.2507001,30.4703685 C20.0920089,30.6364196 19.8702822,30.7272912 19.6407001,30.7203685 L0.860700079,30.7203685 C0.631118004,30.7272912 0.409391283,30.6364196 0.250700079,30.4703685 C0.0903473531,30.3202054 -0.000235716533,30.1100526 0.000331538529,29.8903685 L0.000331538529,0.86036854 C-0.00622258711,0.630786465 0.0846490196,0.409059745 0.250700079,0.25036854 C0.409391283,0.0843174811 0.631118004,-0.00655412564 0.860700079,0.000368540473 L40.1407001,0.000368540473 C40.3702822,-0.00655412564 40.5920089,0.0843174811 40.7507001,0.25036854 Z M5.75070008,7.25036854 C6.50532432,5.95128979 7.88842619,5.14574694 9.39070008,5.13036854 C10.5271139,5.10840266 11.623471,5.55016554 12.4271871,6.35388156 C13.2309031,7.15759757 13.672666,8.25395472 13.6507001,9.39036854 C13.6507001,11.7431016 11.7434331,13.6503685 9.39070008,13.6503685 C7.03796704,13.6503685 5.13070008,11.7431016 5.13070008,9.39036854 C5.12515725,8.6419597 5.32210928,7.90598106 5.70070008,7.26036854 L5.75070008,7.25036854 Z M11.2607001,7.60036854 C10.7872967,7.1032484 10.1270489,6.82754053 9.44070008,6.84036854 C8.7526136,6.8124981 8.0837102,7.07083899 7.592986,7.55398444 C7.1022618,8.03712988 6.83354188,8.70193165 6.85070008,9.39036854 C6.83602295,10.0711344 7.09966448,10.7284325 7.58070008,11.2103685 C8.05985032,11.6958946 8.71355602,11.9692027 9.39570008,11.9692027 C10.0778441,11.9692027 10.7315498,11.6958946 11.2107001,11.2103685 C11.7188878,10.7422393 12.0057829,10.081291 12.0007001,9.39036854 C11.9994914,8.71232133 11.7127079,8.06615096 11.2107001,7.61036854 L11.2607001,7.60036854 Z M40.7507001,29.2703685 C40.8809096,29.3931539 40.9684987,29.5543179 41.0007001,29.7303685 C41.0273847,29.8980549 40.9993322,30.0698767 40.9207001,30.2203685 C40.8090219,30.5519992 40.4901512,30.7686678 40.1407001,30.7503685 L34.7707001,30.7503685 L38.3307001,37.1903685 C38.4450624,37.3809648 38.4635667,37.6141192 38.3807001,37.8203685 C38.3253974,38.0422487 38.1755166,38.2286858 37.9707001,38.3303685 L32.8407001,40.9203685 C32.7213925,40.9630891 32.5969994,40.9899849 32.4707001,41.0003685 C32.1454699,41.0141755 31.8415429,40.8388331 31.6907001,40.5503685 L27.9207001,33.7403685 L23.5807001,37.1503685 C23.3216839,37.3591736 22.9621748,37.3907788 22.6707001,37.2303685 C22.5357511,37.1704321 22.4235889,37.0687851 22.3507001,36.9403685 C22.2639954,36.8064445 22.2187708,36.6498979 22.2206408,36.4903685 L22.2206408,12.7903685 C22.2225284,12.6222193 22.2747827,12.4584893 22.3707001,12.3203685 C22.4521708,12.1792812 22.579083,12.0699956 22.7307001,12.0103685 C22.8942418,11.9647256 23.0671583,11.9647256 23.2307001,12.0103685 C23.3924682,12.0460032 23.5412639,12.1255916 23.6607001,12.2403685 L40.7507001,29.2703685 Z M38.0907001,29.0003685 L23.9007001,14.8803685 L23.9007001,34.7303685 L27.6707001,31.7303685 C27.8249305,31.6125048 28.0171561,31.5555491 28.2107001,31.5703685 L28.3707001,31.5703685 C28.619202,31.6311205 28.8301083,31.7947546 28.9507001,32.0203685 L32.8007001,39.0203685 L36.4107001,37.2203685 L32.5507001,30.3003685 C32.4150343,30.0386953 32.4342462,29.7236198 32.6007001,29.4803685 C32.7209992,29.1881883 33.0156209,29.0065722 33.3307001,29.0303685 L38.0907001,29.0003685 Z" id="Shape"></path>
        </g>
    </g>
</svg>