<?xml version="1.0" encoding="UTF-8"?>
<svg width="60px" height="60px" viewBox="0 0 60 60" version="1.1" xmlns="http://www.w3.org/2000/svg" xmlns:xlink="http://www.w3.org/1999/xlink">
    <title>image</title>
    <g id="image" stroke="none" stroke-width="1" fill="none" fill-rule="evenodd">
        <g id="Group" transform="translate(9.000000, 15.000000)" fill="#43536D" fill-rule="nonzero">
            <path d="M1.00063787,30.911815 C0.743304002,30.9163609 0.492322562,30.8315221 0.290637866,30.6716271 C0.101111109,30.5226503 -0.00649729947,30.2925909 0.000304104775,30.0516271 L0.000304104775,1.00162711 C-0.00631049086,0.728924628 0.0984487989,0.465220209 0.290637866,0.271627112 C0.482579622,0.0917449149 0.737670587,-0.00526150844 1.00063787,0.00162711192 L40.3006379,0.00162711192 C40.5365109,-0.0128954936 40.7679666,0.0702838882 40.9406379,0.231627112 C41.0967838,0.402857846 41.1762491,0.630417683 41.1606379,0.861627112 L41.1606379,29.8616271 C41.1762491,30.0928365 41.0967838,30.3203964 40.9406379,30.4916271 C40.7679666,30.6529703 40.5365109,30.7361497 40.3006379,30.7216271 L1.00063787,30.7216271 L1.00063787,30.911815 Z M1.87063787,26.3216271 L10.5806379,14.0016271 C10.9113497,13.5661174 11.5305571,13.4770228 11.9706379,13.8016271 L17.5906379,17.7316271 L25.4606379,8.20162711 C25.6272537,7.9370889 25.9180018,7.77660134 26.2306379,7.77660134 C26.5432739,7.77660134 26.834022,7.9370889 27.0006379,8.20162711 L39.4406379,26.8116271 L39.4406379,1.89162711 L1.89063787,1.89162711 L1.87063787,26.3216271 Z M38.6206379,29.0016271 L26.0006379,10.2516271 L18.5006379,19.4716271 C18.3426553,19.6397709 18.1365998,19.7550223 17.9106379,19.8016271 C17.6964454,19.8639833 17.4653412,19.8023555 17.3106379,19.6416271 L11.7706379,15.7016271 L2.38063787,29.0016271 L38.6206379,29.0016271 Z M13.0006379,7.50162711 C13.0051092,8.18015803 12.8253913,8.84718786 12.4806379,9.43162711 C12.1481765,10.0253199 11.6697595,10.524388 11.0906379,10.8816271 C10.5273002,11.2455122 9.87127832,11.4398891 9.20063787,11.4416271 C8.52708057,11.4384626 7.86824116,11.2442784 7.30063787,10.8816271 C6.70403959,10.5232595 6.2030973,10.0257483 5.84063787,9.43162711 C5.47807105,8.85343212 5.28732538,8.18408823 5.29059544,7.50162711 C5.28880944,6.82791057 5.46472725,6.16563173 5.80063787,5.58162711 C6.13451341,4.98305415 6.61659416,4.4803128 7.20063787,4.12162711 C7.7605204,3.75944916 8.41383176,3.56832084 9.08063787,3.57158493 C9.75671265,3.5719886 10.420115,3.75511529 11.0006379,4.10162711 C11.5934647,4.45277194 12.0912936,4.94373426 12.4506379,5.53162711 C12.8144408,6.12400415 13.0049767,6.80646937 13.0006379,7.50162711 L13.0006379,7.50162711 Z M11.11064,7.50162711 C11.1084572,6.97592723 10.9044006,6.47115553 10.5406379,6.09162711 C10.2077051,5.69433882 9.71890092,5.46088011 9.20063787,5.45162711 C8.67658234,5.46175683 8.17744737,5.67721077 7.81063787,6.05162711 C7.40107284,6.42128579 7.17136056,6.94998866 7.18063787,7.50162711 C7.15472165,8.05525631 7.35298458,8.5959734 7.73063787,9.00162711 C8.06890707,9.37984221 8.55322943,9.59469198 9.06063787,9.59165946 C9.59952424,9.58154409 10.1115304,9.35438643 10.4806379,8.96162711 C10.8833926,8.58294509 11.1114427,8.05444786 11.11064,7.50162711 Z" id="Shape"></path>
        </g>
    </g>
</svg>