<?xml version="1.0" encoding="UTF-8"?>
<svg width="60px" height="60px" viewBox="0 0 60 60" version="1.1" xmlns="http://www.w3.org/2000/svg" xmlns:xlink="http://www.w3.org/1999/xlink">
    <title>imagetext</title>
    <g id="imagetext" stroke="none" stroke-width="1" fill="none" fill-rule="evenodd">
        <g id="Group" transform="translate(4.000000, 20.000000)" fill="#43536D" fill-rule="nonzero" stroke="#43536D" stroke-width="0.5">
            <path d="M0.68066352,20.999882 C0.505617402,21.0029703 0.334892391,20.9453352 0.197700486,20.8367109 C0.0687787715,20.7355037 -0.00441965558,20.5792134 0.000206861077,20.415515 L0.000206861077,0.680453451 C-0.00429258283,0.495193543 0.0669677895,0.316046454 0.197700486,0.184529356 C0.328264955,0.0623267314 0.501785387,-0.00357439564 0.68066352,0.00110537535 L27.4136878,0.00110537535 C27.5741356,-0.00876052879 27.7315786,0.0477472242 27.8490347,0.157355433 C27.9552498,0.273680703 28.0093045,0.42827304 27.9986853,0.58534472 L27.9986853,20.2864389 C28.0093045,20.4435106 27.9552498,20.5981029 27.8490347,20.7144282 C27.7315786,20.8240364 27.5741356,20.8805442 27.4136878,20.8706783 L0.68066352,20.8706783 L0.68066352,20.999882 Z M1.27246329,17.8815467 L7.19726333,9.51197843 C7.42222331,9.21611576 7.84342654,9.15558952 8.14278251,9.37610882 L11.965673,12.0459468 L17.3190801,5.5717596 C17.4324172,5.39204607 17.6301926,5.28301915 17.842857,5.28301915 C18.0555213,5.28301915 18.2532967,5.39204607 18.3666338,5.5717596 L26.8286903,18.2144273 L26.8286903,1.28507324 L1.28606789,1.28507324 L1.27246329,17.8815467 Z M26.270902,19.7021996 L17.6864041,6.96442315 L12.584682,13.2280124 C12.4772175,13.3422406 12.3370525,13.4205364 12.1833465,13.4521973 C12.0376464,13.4945588 11.8804425,13.4526921 11.7752087,13.3435016 L8.00673658,10.6668702 L1.6193804,19.7021996 L26.270902,19.7021996 Z M8.84341902,5.09621594 C8.84646057,5.55717461 8.72421114,6.01032005 8.48969961,6.40735773 C8.26354958,6.81068176 7.93811612,7.14972275 7.54418044,7.39241244 C7.1609815,7.63961708 6.71473595,7.77166663 6.25854644,7.77284736 C5.80037282,7.77069758 5.35221074,7.63877888 4.96611016,7.39241244 C4.56028634,7.14895609 4.21953055,6.81097283 3.9729749,6.40735773 C3.72634622,6.01456207 3.59659536,5.55984459 3.59881976,5.09621594 C3.59760486,4.6385279 3.71726937,4.18861005 3.94576572,3.79186764 C4.17287776,3.38522825 4.50080337,3.04369188 4.89808719,2.80001945 C5.27893588,2.55397455 5.72333762,2.42413189 6.17691889,2.42634935 C6.63680498,2.42662358 7.08807092,2.55103035 7.48295977,2.78643249 C7.88621812,3.02498205 8.22485611,3.35851636 8.46929273,3.75790023 C8.71676224,4.16033044 8.84637045,4.62396187 8.84341902,5.09621594 L8.84341902,5.09621594 Z M7.55778647,5.09621594 C7.55630169,4.73908274 7.41749631,4.39616706 7.17005414,4.13833516 C6.94358341,3.86843812 6.61108433,3.70983839 6.25854644,3.70355239 C5.90206835,3.71043399 5.56254196,3.85680221 5.31302727,4.11116123 C5.034429,4.36228814 4.8781719,4.72146142 4.8844826,5.09621594 C4.86685362,5.47232287 5.00171794,5.83965799 5.2586089,6.11523806 C5.48870963,6.37217775 5.81816005,6.51813553 6.1633143,6.5160754 C6.52988077,6.50920354 6.87816254,6.35488442 7.12924036,6.08806413 C7.40320604,5.83080723 7.55833253,5.47177365 7.55778647,5.09621594 Z" id="Shape"></path>
        </g>
        <g id="Group" transform="translate(37.000000, 21.000000)" fill="#43536D" fill-rule="nonzero" stroke="#43536D" stroke-width="0.5">
            <path d="M18.6014012,1.10751318 L0.398917772,1.10751318 C0.29252867,1.11207584 0.189779766,1.05218332 0.11624173,0.942740819 C0.0382766929,0.83914097 -0.00403057787,0.692319343 0.00039089392,0.540696253 C-0.00449853795,0.392783157 0.0381229274,0.249720734 0.11624173,0.151833475 C0.193091538,0.0511044338 0.29443972,-0.00324551732 0.398917772,0.000242901139 L18.6014012,0.000242901139 C18.7077903,-0.00431975508 18.8105392,0.0555727625 18.8840773,0.165015264 C18.9591302,0.260464847 19.0013929,0.3975143 18.9999649,0.540696253 C19.0005334,0.687455427 18.9586333,0.828096677 18.8840773,0.92955903 C18.8129451,1.04532457 18.7094777,1.11046082 18.6014012,1.10751318 Z M13.0729993,4.48864208 L0.398917772,4.48864208 C0.292944181,4.49004012 0.191045277,4.43064307 0.11624173,4.32386971 C0.045105359,4.22719061 0.00350330675,4.0946503 0.00039089392,3.95477962 C-0.00457275012,3.80493929 0.037940339,3.65982202 0.11624173,3.55932595 C0.193554623,3.46038362 0.294999355,3.40834718 0.398917772,3.41432627 L13.0729993,3.41432627 C13.1726096,3.41303318 13.2681795,3.47026564 13.3371392,3.57250774 C13.4063463,3.67483223 13.443172,3.81291559 13.4390879,3.95477962 C13.4381143,4.10108055 13.3964634,4.24088536 13.3232371,4.3436424 C13.2572929,4.43864914 13.1668494,4.49105643 13.0729993,4.48864208 L13.0729993,4.48864208 Z M18.6014012,7.86318008 L0.398917772,7.86318008 C0.29252867,7.86774273 0.189779766,7.80785022 0.11624173,7.69840771 C0.0382766929,7.59480787 -0.00403057787,7.44798624 0.00039089392,7.29636315 C-0.00449853795,7.14845005 0.0381229274,7.00538763 0.11624173,6.90750037 C0.193091538,6.80677133 0.29443972,6.75242138 0.398917772,6.7559098 L18.6014012,6.7559098 C18.7077903,6.75134714 18.8105392,6.81123966 18.8840773,6.92068216 C18.9591302,7.01613174 19.0013929,7.1531812 18.9999649,7.29636315 C19.0005334,7.44312232 18.9586333,7.58376357 18.8840773,7.68522593 C18.8129451,7.80099146 18.7094777,7.86612771 18.6014012,7.86318008 Z M13.0729993,11.244309 L0.398917772,11.244309 C0.292944181,11.245707 0.191045277,11.18631 0.11624173,11.0795366 C0.0392931139,10.9749449 -0.00281709272,10.8288072 0.00039089392,10.677492 C-0.00457275012,10.5276517 0.037940339,10.3825344 0.11624173,10.2820384 C0.193554623,10.183096 0.294999355,10.1310596 0.398917772,10.1370387 L13.0729993,10.1370387 C13.1726096,10.1357456 13.2681795,10.1929781 13.3371392,10.2952202 C13.4114472,10.3941911 13.4534237,10.5327006 13.4529934,10.677492 C13.4520164,10.823793 13.4103655,10.9635978 13.3371392,11.0663548 C13.2721636,11.1787414 13.1753014,11.2439987 13.0729993,11.244309 Z M18.6014012,14.618847 L0.398917772,14.618847 C0.29252867,14.6234096 0.189779766,14.5635171 0.11624173,14.4540746 C0.0382766929,14.3504748 -0.00403057787,14.2036531 0.00039089392,14.05203 C-0.00449853795,13.9041169 0.0381229274,13.7610545 0.11624173,13.6631673 C0.193091538,13.5624382 0.29443972,13.5080883 0.398917772,13.5115767 L18.6014012,13.5115767 C18.7077903,13.507014 18.8105392,13.5669066 18.8840773,13.6763491 C18.9591302,13.7717986 19.0013929,13.9088481 18.9999649,14.05203 C19.0005334,14.1987892 18.9586333,14.3394305 18.8840773,14.4408928 C18.8129451,14.5566584 18.7094777,14.6217946 18.6014012,14.618847 L18.6014012,14.618847 Z M13.0729993,17.9999759 L0.398917772,17.9999759 C0.292944181,18.0013739 0.191045277,17.9419769 0.11624173,17.8352035 C0.0392931139,17.7306118 -0.00281709272,17.5844741 0.00039089392,17.4331589 C-0.00457275012,17.2833186 0.037940339,17.1382013 0.11624173,17.0377053 C0.193554623,16.9387629 0.294999355,16.8867265 0.398917772,16.8927056 L13.0729993,16.8927056 C13.1726096,16.8914125 13.2681795,16.948645 13.3371392,17.0508871 C13.4114472,17.149858 13.4534237,17.2883675 13.4529934,17.4331589 C13.4520164,17.5794599 13.4103655,17.7192647 13.3371392,17.8220217 C13.2721636,17.9344083 13.1753014,17.9996656 13.0729993,17.9999759 L13.0729993,17.9999759 Z" id="Shape"></path>
        </g>
    </g>
</svg>