<?xml version="1.0" encoding="UTF-8"?>
<svg width="60px" height="60px" viewBox="0 0 60 60" version="1.1" xmlns="http://www.w3.org/2000/svg" xmlns:xlink="http://www.w3.org/1999/xlink">
    <title>link</title>
    <g id="link" stroke="none" stroke-width="1" fill="none" fill-rule="evenodd">
        <g id="Group" transform="translate(10.000000, 17.000000)" fill="#43536D" fill-rule="nonzero">
            <path d="M11.7107183,0.270263642 C11.8854415,0.417876562 11.9905697,0.631758137 12.0008084,0.860263642 L12.0008084,11.1102636 C12.0041417,11.3441137 11.9099169,11.5688035 11.7407183,11.7302636 C11.5783922,11.8834601 11.3639175,11.96925 11.1407183,11.9702636 L0.860718295,11.9702636 C0.630979023,11.975802 0.409002018,11.8869747 0.246504624,11.7244773 C0.08400723,11.5619799 -0.00482002315,11.3400029 0.000718295055,11.1102636 L0.000718295055,0.860263642 C-0.000587964485,0.637594058 0.0898303383,0.424206863 0.250718295,0.270263642 C0.404217724,0.0946189932 0.627494977,-0.00420864361 0.860718295,0.000263642128 L11.1107183,0.000263642128 C11.3393735,0.00376446936 11.5564536,0.101450514 11.7107183,0.270263642 Z M11.7107183,13.9402636 C11.8820175,14.1002693 11.9766514,14.3259347 11.9707183,14.5602636 L11.9707183,24.8102636 C11.9675172,25.0282495 11.8732339,25.2349476 11.7107183,25.3802636 C11.5493902,25.5362623 11.3350845,25.6255564 11.1107183,25.6303003 L0.860718295,25.6303003 C0.632032872,25.6323848 0.412140406,25.542265 0.250718295,25.3802636 C0.0908850364,25.2339108 0.000125414375,25.0269788 0.000718295055,24.8102636 L0.000718295055,14.5602636 C-0.00909438701,14.327243 0.0820114239,14.1013006 0.250718295,13.9402636 C0.412140406,13.7782623 0.632032872,13.6881425 0.860718295,13.690227 L11.1107183,13.690227 C11.3350845,13.6949709 11.5493902,13.784265 11.7107183,13.9402636 Z M10.2507183,1.72026364 L1.7207183,1.72026364 L1.7207183,10.2502636 L10.2507183,10.2502636 L10.2507183,1.72026364 Z M10.2507183,15.3802636 L1.7207183,15.3802636 L1.7207183,23.9402636 L10.2507183,23.9402636 L10.2507183,15.3802636 Z M25.3807183,0.270263642 C25.5378287,0.426786115 25.627544,0.638514005 25.6307715,0.860263642 L25.6307715,11.1102636 C25.6332801,11.3419773 25.5432958,11.5651385 25.3807183,11.7302636 C25.2158519,11.8921243 24.9915963,11.978933 24.7607183,11.9702636 L14.5107183,11.9702636 C14.290583,11.9687256 14.079419,11.8828284 13.9207183,11.7302636 C13.7446275,11.5728474 13.6460182,11.3464114 13.6507183,11.1102636 L13.6507183,0.860263642 C13.6520756,0.634006515 13.7503811,0.419190992 13.9207183,0.270263642 C14.071172,0.101984991 14.2850213,0.0041217179 14.5107183,0.000263642128 L24.7607183,0.000263642128 C24.9971343,-0.00580177992 25.224119,0.093046409 25.3807183,0.270263642 Z M25.3807183,13.9402636 C25.5452343,14.1041107 25.6355631,14.328126 25.6307183,14.5602636 L25.6307183,24.8102636 C25.6266231,25.0259761 25.5366385,25.2311411 25.3807183,25.3802636 C25.2168713,25.5447797 24.992856,25.6351084 24.7607183,25.6302636 L14.5107183,25.6302636 C14.2894077,25.6250283 14.0784161,25.5356251 13.9207183,25.3802636 C13.7513192,25.2391798 13.6525711,25.0307115 13.6507183,24.8102636 L13.6507183,14.5602636 C13.6446529,14.3238477 13.7435011,14.096863 13.9207183,13.9402636 C14.0784161,13.7849022 14.2894077,13.6954989 14.5107183,13.6902636 L24.7607183,13.6902636 C24.992856,13.6854189 25.2168713,13.7757476 25.3807183,13.9402636 Z M23.9007183,1.72026364 L15.3807183,1.72026364 L15.3807183,10.2502636 L23.9007183,10.2502636 L23.9007183,1.72026364 Z M23.9007183,15.3802636 L15.3807183,15.3802636 L15.3807183,23.9402636 L23.9007183,23.9402636 L23.9007183,15.3802636 Z M39.0007183,0.270263642 C39.1616063,0.424206863 39.2520246,0.637594058 39.2507183,0.860263642 L39.2507183,11.1102636 C39.2562566,11.3400029 39.1674294,11.5619799 39.004932,11.7244773 C38.8424346,11.8869747 38.6204576,11.975802 38.3907183,11.9702636 L28.1707183,11.9702636 C27.9532058,11.9703551 27.7445686,11.8840225 27.5907183,11.7302636 C27.4308403,11.5641257 27.344371,11.3407468 27.3507183,11.1102636 L27.3507183,0.860263642 C27.3501617,0.639716179 27.436366,0.427797344 27.5907183,0.270263642 C27.7357435,0.100405019 27.9473764,0.0018862463 28.1707183,0.000263642128 L38.4207183,0.000263642128 C38.6434749,0.00445131042 38.8541072,0.102504268 39.0007183,0.270263642 L39.0007183,0.270263642 Z M39.0007183,13.9402636 C39.1694252,14.1013006 39.260531,14.327243 39.2507183,14.5602636 L39.2507183,24.8102636 C39.2513112,25.0269788 39.1605516,25.2339108 39.0007183,25.3802636 C38.8392962,25.542265 38.6194037,25.6323848 38.3907183,25.6303003 L28.1707183,25.6303003 C27.9519942,25.6266187 27.7435525,25.5367732 27.5907183,25.3802636 C27.4375406,25.2301201 27.351071,25.0247546 27.3507183,24.8102636 L27.3507183,14.5602636 C27.342049,14.3293857 27.4288576,14.10513 27.5907183,13.9402636 C27.7435525,13.7837541 27.9519942,13.6939086 28.1707183,13.6902636 L38.4207183,13.6902636 C38.6389851,13.6960107 38.8466699,13.78553 39.0007183,13.9402636 Z M37.6007183,1.72026364 L29.0007183,1.72026364 L29.0007183,10.2502636 L37.6007183,10.2502636 L37.6007183,1.72026364 Z M37.6007183,15.3802636 L29.0007183,15.3802636 L29.0007183,23.9402636 L37.6007183,23.9402636 L37.6007183,15.3802636 Z" id="Shape"></path>
        </g>
    </g>
</svg>