<svg xmlns="http://www.w3.org/2000/svg" width="60" height="60" viewBox="0 0 60 60"><g fill="none" fill-rule="evenodd"><line x1="30.5" x2="30.5" y1="6.5" y2="46.5" stroke="#43536D" stroke-dasharray="2" stroke-linecap="square" stroke-opacity=".16"/><line x1="50.5" x2="50.5" y1="6.5" y2="46.5" stroke="#43536D" stroke-dasharray="2" stroke-linecap="square" stroke-opacity=".48"/><line x1="9.5" x2="9.5" y1="6.5" y2="46.5" stroke="#43536D" stroke-dasharray="2" stroke-linecap="square" stroke-opacity=".48"/><rect width="31" height="14" x="14.5" y="18.5" fill="#A5ADB9" stroke="#43536D" rx="1"/><g fill="#43536D" fill-rule="nonzero" transform="translate(16.786 50.577)"><polygon points="3.586 .06 3.586 4.423 2.884 4.423 .827 1.451 .791 1.451 .791 4.423 0 4.423 0 .06 .709 .06 2.761 3.034 2.801 3.034 2.801 .06"/><path d="M5.00628558 4.42329545 4.16250229 4.42329545 5.69998897.0596590909 6.67504224.0596590909 8.21252892 4.42329545 7.36874563 4.42329545 6.20456106.954545455 6.17047015.954545455 5.00628558 4.42329545ZM5.03355165 2.71192516 7.33468801 2.71192516 7.33468801 3.34773393 5.03355165 3.34773393 5.03355165 2.71192516ZM8.78864947 4.42329545 8.78864947.0596590909 10.4267443.0596590909C10.7608396.0596590909 11.0420896.11796986 11.2704943.234591397 11.4988989.351212935 11.6716229.514354359 11.7886661.724015669 11.9057094.93367698 11.964231 1.17756792 11.964231 1.45568848 11.964231 1.73494096 11.9049991 1.97712846 11.7865354 2.18225098 11.6680717 2.38737349 11.4937831 2.54568759 11.2636694 2.65719327 11.0335558 2.76869895 10.7505968 2.82445179 10.4147925 2.82445179L9.24891004 2.82445179 9.24891004 2.16986639 10.309124 2.16986639C10.5045697 2.16986639 10.6648646 2.14245605 10.7900089 2.08763539 10.9151532 2.03281472 11.0077657 1.95234819 11.0678465 1.8462358 11.1279273 1.7401234 11.1579677 1.60994096 11.1579677 1.45568848 11.1579677 1.30085893 11.1277109 1.16847368 11.0671973 1.05853271 11.0066837.948591752 10.9136439.864574086 10.788078.806479714 10.662512.748385343 10.5011517.719338157 10.303997.719338157L9.57959851.719338157 9.57959851 4.42329545 8.78864947 4.42329545ZM11.0437764 2.44602273 12.1244649 4.42329545 11.241497 4.42329545 10.1812831 2.44602273 11.0437764 2.44602273ZM12.6920627 4.42329545 12.6920627.0596590909 14.3301575.0596590909C14.6642529.0596590909 14.9455029.11796986 15.1739075.234591397 15.4023122.351212935 15.5750361.514354359 15.6920794.724015669 15.8091226.93367698 15.8676442 1.17756792 15.8676442 1.45568848 15.8676442 1.73494096 15.8084124 1.97712846 15.6899487 2.18225098 15.571485 2.38737349 15.3971963 2.54568759 15.1670827 2.65719327 14.9369691 2.76869895 14.6540101 2.82445179 14.3182057 2.82445179L13.1523233 2.82445179 13.1523233 2.16986639 14.2125372 2.16986639C14.4079829 2.16986639 14.5682779 2.14245605 14.6934221 2.08763539 14.8185664 2.03281472 14.9111789 1.95234819 14.9712597 1.8462358 15.0313405 1.7401234 15.0613809 1.60994096 15.0613809 1.45568848 15.0613809 1.30085893 15.0311241 1.16847368 14.9706105 1.05853271 14.9100969.948591752 14.8170572.864574086 14.6914912.806479714 14.5659253.748385343 14.4045649.719338157 14.2074103.719338157L13.4830118.719338157 13.4830118 4.42329545 12.6920627 4.42329545ZM14.9471897 2.44602273 16.0278782 4.42329545 15.1449103 4.42329545 14.0846963 2.44602273 14.9471897 2.44602273ZM20.4954893 2.24147727C20.4954893 2.71193626 20.4078484 3.11435214 20.2325665 3.44872492 20.0572846 3.7830977 19.8185095 4.0390625 19.5162412 4.21661932 19.213973 4.39417614 18.8722094 4.48295455 18.4909505 4.48295455 18.1085597 4.48295455 17.7663689 4.39389316 17.464378 4.21577037 17.1623872 4.03764759 16.9238951 3.78139981 16.7489017 3.44702703 16.5739084 3.11265425 16.4864117 2.71080433 16.4864117 2.24147727 16.4864117 1.77101829 16.5739084 1.36860241 16.7489017 1.03422963 16.9238951.699856845 17.1623872.443892045 17.464378.266335227 17.7663689.0887784091 18.1085597 0 18.4909505 0 18.8722094 0 19.213973.0887784091 19.5162412.266335227 19.8185095.443892045 20.0572846.699856845 20.2325665 1.03422963 20.4078484 1.36860241 20.4954893 1.77101829 20.4954893 2.24147727ZM19.7011778 2.24147727C19.7011778 1.91022283 19.6496863 1.63067627 19.5467033 1.40283758 19.4437204 1.17499889 19.3012477 1.00241921 19.1192852.885098544 18.9373228.767777876 18.7278779.709117543 18.4909505.709117543 18.2540231.709117543 18.0445782.767777876 17.8626158.885098544 17.6806533 1.00241921 17.5381806 1.17499889 17.4351977 1.40283758 17.3322147 1.63067627 17.2807232 1.91022283 17.2807232 2.24147727 17.2807232 2.57273171 17.3322147 2.85227828 17.4351977 3.08011697 17.5381806 3.30795566 17.6806533 3.48053533 17.8626158 3.597856 18.0445782 3.71517667 18.2540231 3.773837 18.4909505 3.773837 18.7278779 3.773837 18.9373228 3.71517667 19.1192852 3.597856 19.3012477 3.48053533 19.4437204 3.30795566 19.5467033 3.08011697 19.6496863 2.85227828 19.7011778 2.57273171 19.7011778 2.24147727Z"/><polygon points="22.164 4.423 20.934 .06 21.784 .06 22.57 3.266 22.609 3.266 23.449 .06 24.223 .06 25.064 3.269 25.103 3.269 25.889 .06 26.739 .06 25.509 4.423 24.728 4.423 23.853 1.362 23.819 1.362 22.945 4.423"/></g></g></svg>