<svg xmlns="http://www.w3.org/2000/svg" width="60" height="60" viewBox="0 0 60 60"><g fill="none" fill-rule="evenodd"><path stroke="#43536D" stroke-dasharray="2" stroke-linecap="square" stroke-opacity=".16" d="M30.5 6.5v40"/><path stroke="#43536D" stroke-dasharray="2" stroke-linecap="square" stroke-opacity=".48" d="M50.5 6.5v40M9.5 6.5v40"/><rect width="31" height="14" x="14.5" y="18.5" fill="#A5ADB9" stroke="#43536D" rx="1"/><g fill="#43536D" fill-rule="nonzero"><path d="M20.372 50.637V55h-.702l-2.057-2.972h-.036V55h-.791v-4.363h.709l2.052 2.974h.04v-2.974zM21.792 55h-.843l1.537-4.363h.975L24.999 55h-.844l-1.164-3.468h-.035L21.792 55Zm.028-1.711h2.3v.636h-2.3v-.636ZM25.575 55v-4.363h1.638c.334 0 .615.058.843.175.229.116.402.28.519.489.117.21.175.454.175.732 0 .279-.059.521-.177.726a1.179 1.179 0 0 1-.523.475c-.23.112-.513.167-.85.167h-1.165v-.654h1.06c.196 0 .356-.028.481-.082a.57.57 0 0 0 .278-.242.782.782 0 0 0 .09-.39.812.812 0 0 0-.09-.397.59.59 0 0 0-.28-.253 1.158 1.158 0 0 0-.484-.087h-.724V55h-.791Zm2.255-1.977L28.91 55h-.883l-1.06-1.977h.863ZM29.478 55v-4.363h1.638c.334 0 .616.058.844.175.228.116.401.28.518.489.117.21.176.454.176.732 0 .279-.06.521-.178.726a1.179 1.179 0 0 1-.523.475c-.23.112-.513.167-.849.167h-1.166v-.654h1.06c.196 0 .356-.028.481-.082a.57.57 0 0 0 .278-.242.782.782 0 0 0 .09-.39.812.812 0 0 0-.09-.397.59.59 0 0 0-.28-.253 1.158 1.158 0 0 0-.484-.087h-.724V55h-.79Zm2.255-1.977L32.813 55h-.882l-1.06-1.977h.862Zm5.548-.205c0 .47-.087.873-.262 1.208-.176.334-.414.59-.717.768a1.986 1.986 0 0 1-1.025.266c-.382 0-.725-.09-1.027-.267a1.88 1.88 0 0 1-.715-.769c-.175-.334-.263-.736-.263-1.206s.088-.872.263-1.207c.175-.334.413-.59.715-.768a1.987 1.987 0 0 1 1.027-.266c.381 0 .723.089 1.025.266.303.178.541.434.717.768.175.335.262.737.262 1.207Zm-.794 0c0-.33-.051-.61-.154-.838a1.168 1.168 0 0 0-.428-.518 1.134 1.134 0 0 0-.628-.176c-.237 0-.446.059-.628.176-.182.117-.325.29-.428.518-.103.228-.154.507-.154.838 0 .332.051.611.154.84.103.227.246.4.428.517.182.117.391.176.628.176s.446-.059.628-.176c.182-.117.325-.29.428-.518.103-.228.154-.507.154-.839ZM38.95 55l-1.23-4.363h.85l.786 3.206h.039l.84-3.206h.774l.841 3.209h.039l.786-3.209h.85L42.295 55h-.781l-.875-3.061h-.034L39.731 55z"/></g></g></svg>