<?xml version="1.0" encoding="UTF-8"?>
<svg width="60px" height="60px" viewBox="0 0 60 60" version="1.1" xmlns="http://www.w3.org/2000/svg" xmlns:xlink="http://www.w3.org/1999/xlink">
    <title>slider</title>
    <g id="slider" stroke="none" stroke-width="1" fill="none" fill-rule="evenodd">
        <g id="Group" transform="translate(10.000000, 21.000000)" fill="#43536D" fill-rule="nonzero">
            <path d="M4.88200684,0.250718295 C5.04400815,0.412140406 5.13412801,0.632032872 5.13204345,0.860718295 L5.13204345,18.0007183 C5.13018562,18.2169238 5.03982995,18.4229347 4.88200684,18.5707183 C4.72096989,18.7394252 4.49502748,18.830531 4.26200684,18.8207183 L0.862006838,18.8207183 C0.632424763,18.827641 0.410698042,18.7367694 0.252006838,18.5707183 C0.0770192594,18.4097905 -0.0150231504,18.1778436 0.00200683789,17.9407183 C-0.000870686739,17.714819 0.089578776,17.4977403 0.252006838,17.3407183 C0.414445866,17.1814075 0.634561453,17.0948046 0.862006838,17.1007183 L3.40200684,17.1007183 L3.40200684,1.7207183 L0.862006838,1.7207183 C0.632267566,1.72625661 0.41029056,1.63742936 0.247793167,1.47493197 C0.0852957728,1.31243457 -0.00353148032,1.09045757 0.00200683789,0.860718295 C-0.00491582822,0.63113622 0.0859557785,0.409409499 0.252006838,0.250718295 C0.410698042,0.0846672357 0.632424763,-0.00620437106 0.862006838,0.000718295055 L4.26200684,0.000718295055 C4.49502748,-0.00909438701 4.72096989,0.0820114239 4.88200684,0.250718295 Z M32.2120068,0.250718295 C32.3806884,0.408378988 32.4750852,0.629848466 32.4720798,0.860718295 L32.4720798,18.0007111 C32.4713263,18.2192636 32.3765972,18.4269389 32.2120068,18.5707183 C32.0530264,18.7302512 31.8372295,18.8201666 31.6120068,18.8207255 L7.67200684,18.8207255 C7.45232274,18.8216541 7.24217002,18.731071 7.09200684,18.5707183 C6.93688056,18.4219068 6.8500449,18.2156722 6.85200684,18.0007111 L6.85200684,0.860718295 C6.84609316,0.63327291 6.93269602,0.413157323 7.09200684,0.250718295 C7.24217002,0.0903655692 7.45232274,-0.000217500479 7.67200684,0.000711115648 L31.6120068,0.000711115648 C31.8372295,0.00127003139 32.0530264,0.0911853984 32.2120068,0.250718295 Z M30.7520068,1.7207183 L8.53200684,1.7207183 L8.53200684,17.1007183 L30.7520068,17.1007183 L30.7520068,1.7207183 Z M39.0020068,17.3607183 C39.1615397,17.5196988 39.2514551,17.7354957 39.2520068,17.9607183 C39.2551679,18.1779604 39.1639672,18.3858979 39.0020068,18.5307183 C38.8433156,18.6967694 38.6215889,18.787641 38.3920068,18.7807183 L35.0020068,18.7807183 C34.7798043,18.779721 34.5672802,18.6896684 34.4120068,18.5307183 C34.2414889,18.3905045 34.1424776,18.1814808 34.1420068,17.9607183 L34.1420068,0.860718295 C34.1375346,0.627494977 34.2363622,0.404217724 34.4120068,0.250718295 C34.5672802,0.0917682097 34.7798043,0.00171561182 35.0020068,0.000718295055 L38.4120068,0.000718295055 C38.638264,0.00207564951 38.8530795,0.100381058 39.0020068,0.270718295 C39.1628948,0.424661516 39.2533131,0.638048711 39.2520068,0.860718295 C39.2514551,1.08594093 39.1615397,1.30173781 39.0020068,1.4607183 C38.8443461,1.62939983 38.6228767,1.72379666 38.3920068,1.7207183 L35.8820068,1.7207183 L35.8820068,17.1007183 L38.4220068,17.1007183 C38.6424328,17.1058834 38.8514913,17.1995993 39.0020068,17.3607183 Z" id="Shape"></path>
        </g>
    </g>
</svg>