<?xml version="1.0" encoding="UTF-8"?>
<svg width="60px" height="60px" viewBox="0 0 60 60" version="1.1" xmlns="http://www.w3.org/2000/svg" xmlns:xlink="http://www.w3.org/1999/xlink">
    <title>splittext</title>
    <g id="splittext" stroke="none" stroke-width="1" fill="none" fill-rule="evenodd">
        <g id="Group" transform="translate(9.000000, 16.000000)" fill="#43536D" fill-rule="nonzero">
            <path d="M18.5301552,0.23036854 C18.6987314,0.378887467 18.7907063,0.595948175 18.7801552,0.82036854 C18.7874129,1.05294187 18.6967115,1.27788152 18.5301552,1.44036854 C18.3813437,1.59549482 18.175109,1.68233047 17.9601552,1.68036854 L0.860155173,1.68036854 C0.626931855,1.68484083 0.403654601,1.58601319 0.250155173,1.41036854 C0.0892672158,1.25642532 -0.00115108694,1.04303812 7.56409303e-05,0.82036854 C-0.00300589242,0.603126477 0.088194792,0.395188917 0.250155173,0.25036854 C0.408846377,0.0843174811 0.630573097,-0.00655412564 0.860155173,0.000368540473 L18.0001552,0.000368540473 C18.1990876,0.00928069385 18.3877664,0.0911601603 18.5301552,0.23036854 Z M18.5301552,5.35036854 C18.6975362,5.49974632 18.7892579,5.7162095 18.7801552,5.94036854 C18.7899679,6.17338918 18.698862,6.39933159 18.5301552,6.56036854 C18.3823716,6.71819166 18.1763607,6.80854732 17.9601552,6.81036854 L0.860155173,6.81036854 C0.626931855,6.81484083 0.403654601,6.71601319 0.250155173,6.54036854 C0.090622276,6.38138806 0.000706908936,6.16559118 0.000155172603,5.94036854 C0.000787688775,5.72391031 0.0913409685,5.51744883 0.250155173,5.37036854 C0.4125942,5.21105772 0.632709787,5.12445487 0.860155173,5.13036854 L18.0001552,5.13036854 C18.1979492,5.13563603 18.3867738,5.21401607 18.5301552,5.35036854 L18.5301552,5.35036854 Z M18.5301552,10.4803685 C18.6987314,10.6288875 18.7907063,10.8459482 18.7801552,11.0703685 C18.7874129,11.3029419 18.6967115,11.5278815 18.5301552,11.6903685 C18.3813437,11.8454948 18.175109,11.9323305 17.9601552,11.9303685 L0.860155173,11.9303685 C0.626931855,11.9348408 0.403654601,11.8360132 0.250155173,11.6603685 C0.0892672158,11.5064253 -0.00115108694,11.2930381 7.56409303e-05,11.0703685 C-0.00300589242,10.8531265 0.088194792,10.6451889 0.250155173,10.5003685 C0.408846377,10.3343175 0.630573097,10.2434459 0.860155173,10.2503685 L18.0001552,10.2503685 C18.1990876,10.2592807 18.3877664,10.3411602 18.5301552,10.4803685 Z M18.5301552,15.6003685 C18.6975362,15.7497463 18.7892579,15.9662095 18.7801552,16.1903685 C18.7899679,16.4233892 18.698862,16.6493316 18.5301552,16.8103685 C18.3823716,16.9681917 18.1763607,17.0585473 17.9601552,17.0603685 L0.860155173,17.0603685 C0.626931855,17.0648408 0.403654601,16.9660132 0.250155173,16.7903685 C0.090622276,16.6313881 0.000706908936,16.4155912 0.000155172603,16.1903685 C0.000787688775,15.9739103 0.0913409685,15.7674488 0.250155173,15.6203685 C0.4125942,15.4610577 0.632709787,15.3744549 0.860155173,15.3803685 L18.0001552,15.3803685 C18.1979492,15.385636 18.3867738,15.4640161 18.5301552,15.6003685 Z M18.5301552,20.7303685 C18.6987314,20.8788875 18.7907063,21.0959482 18.7801552,21.3203685 C18.7874129,21.5529419 18.6967115,21.7778815 18.5301552,21.9403685 C18.3813437,22.0954948 18.175109,22.1823305 17.9601552,22.1803685 L0.860155173,22.1803685 C0.626931855,22.1848408 0.403654601,22.0860132 0.250155173,21.9103685 C0.0892672158,21.7564253 -0.00115108694,21.5430381 7.56409303e-05,21.3203685 C-0.00300589242,21.1031265 0.088194792,20.8951889 0.250155173,20.7503685 C0.408846377,20.5843175 0.630573097,20.4934459 0.860155173,20.5003685 L18.0001552,20.5003685 C18.1990876,20.5092807 18.3877664,20.5911602 18.5301552,20.7303685 Z M13.4101552,25.8503685 C13.5704675,26.0039228 13.6577573,26.2185101 13.6501552,26.4403685 C13.6588245,26.6712465 13.5720159,26.8955022 13.4101552,27.0603685 C13.257321,27.2168781 13.0488793,27.3067236 12.8301552,27.3103685 L0.860155173,27.3103685 C0.620298273,27.305022 0.39586763,27.1909671 0.250155173,27.0003685 C0.090622276,26.8413881 0.000706908936,26.6255912 0.000155172603,26.4003685 C0.000787688775,26.1839103 0.0913409685,25.9774488 0.250155173,25.8303685 C0.4125942,25.6710577 0.632709787,25.5844549 0.860155173,25.5903685 L12.8601552,25.5903685 C13.0695347,25.6052707 13.2657475,25.6980258 13.4101552,25.8503685 Z M22.4701552,1.41036854 C22.3092672,1.25642532 22.2188489,1.04303812 22.2200756,0.82036854 C22.2169941,0.603126477 22.3081948,0.395188917 22.4701552,0.25036854 C22.6288464,0.0843174811 22.8505731,-0.00655412564 23.0801552,0.000368540473 L40.1401552,0.000368540473 C40.3656133,-0.00492424405 40.5843173,0.0775379329 40.7501552,0.23036854 C40.9187314,0.378887467 41.0107063,0.595948175 41.0001552,0.82036854 C41.0056935,1.05010781 40.9168662,1.27208482 40.7543688,1.43458221 C40.5918715,1.59707961 40.3698944,1.68590686 40.1401552,1.68036854 L23.0801552,1.68036854 C22.8469319,1.68484083 22.6236546,1.58601319 22.4701552,1.41036854 L22.4701552,1.41036854 Z M40.7501552,5.35036854 C40.9175362,5.49974632 41.0092579,5.7162095 41.0001552,5.94036854 C41.0099679,6.17338918 40.918862,6.39933159 40.7501552,6.56036854 C40.5887331,6.72236985 40.3688406,6.81248971 40.1401552,6.81036854 L23.0801552,6.81036854 C22.8469319,6.81484083 22.6236546,6.71601319 22.4701552,6.54036854 C22.3106223,6.38138806 22.2207069,6.16559118 22.2201552,5.94036854 C22.2207877,5.72391031 22.311341,5.51744883 22.4701552,5.37036854 C22.6325942,5.21105772 22.8527098,5.12445487 23.0801552,5.13036854 L40.1401552,5.13036854 C40.3644056,5.1212968 40.583318,5.20024881 40.7501552,5.35036854 L40.7501552,5.35036854 Z M40.7501552,10.4803685 C40.9187314,10.6288875 41.0107063,10.8459482 41.0001552,11.0703685 C41.0056935,11.3001078 40.9168662,11.5220848 40.7543688,11.6845822 C40.5918715,11.8470796 40.3698944,11.9359069 40.1401552,11.9303685 L23.0801552,11.9303685 C22.8469319,11.9348408 22.6236546,11.8360132 22.4701552,11.6603685 C22.3092672,11.5064253 22.2188489,11.2930381 22.2200756,11.0703685 C22.2169941,10.8531265 22.3081948,10.6451889 22.4701552,10.5003685 C22.6288464,10.3343175 22.8505731,10.2434459 23.0801552,10.2503685 L40.1401552,10.2503685 C40.3656133,10.2450758 40.5843173,10.3275379 40.7501552,10.4803685 L40.7501552,10.4803685 Z M40.7501552,15.6003685 C40.9175362,15.7497463 41.0092579,15.9662095 41.0001552,16.1903685 C41.0099679,16.4233892 40.918862,16.6493316 40.7501552,16.8103685 C40.5887331,16.9723698 40.3688406,17.0624897 40.1401552,17.0603685 L23.0801552,17.0603685 C22.8469319,17.0648408 22.6236546,16.9660132 22.4701552,16.7903685 C22.3106223,16.6313881 22.2207069,16.4155912 22.2201552,16.1903685 C22.2207877,15.9739103 22.311341,15.7674488 22.4701552,15.6203685 C22.6325942,15.4610577 22.8527098,15.3744549 23.0801552,15.3803685 L40.1401552,15.3803685 C40.3644056,15.3712968 40.583318,15.4502488 40.7501552,15.6003685 L40.7501552,15.6003685 Z M40.7501552,20.7303685 C40.9187314,20.8788875 41.0107063,21.0959482 41.0001552,21.3203685 C41.0056935,21.5501078 40.9168662,21.7720848 40.7543688,21.9345822 C40.5918715,22.0970796 40.3698944,22.1859069 40.1401552,22.1803685 L23.0801552,22.1803685 C22.8469319,22.1848408 22.6236546,22.0860132 22.4701552,21.9103685 C22.3092672,21.7564253 22.2188489,21.5430381 22.2200756,21.3203685 C22.2169941,21.1031265 22.3081948,20.8951889 22.4701552,20.7503685 C22.6288464,20.5843175 22.8505731,20.4934459 23.0801552,20.5003685 L40.1401552,20.5003685 C40.3656133,20.4950758 40.5843173,20.5775379 40.7501552,20.7303685 L40.7501552,20.7303685 Z M35.6301552,25.8503685 C35.7941529,26.0021462 35.8851804,26.216971 35.8801552,26.4403685 C35.885,26.6725062 35.7946712,26.8965215 35.6301552,27.0603685 C35.46503,27.222946 35.2418688,27.3129304 35.0101552,27.3103685 L23.0801552,27.3103685 C22.8469319,27.3148408 22.6236546,27.2160132 22.4701552,27.0403685 C22.3106223,26.8813881 22.2207069,26.6655912 22.2201552,26.4403685 C22.2207877,26.2239103 22.311341,26.0174488 22.4701552,25.8703685 C22.6325942,25.7110577 22.8527098,25.6244549 23.0801552,25.6303685 L35.0001552,25.6303685 C35.2307401,25.6192197 35.4566354,25.6981037 35.6301552,25.8503685 L35.6301552,25.8503685 Z" id="Shape"></path>
        </g>
    </g>
</svg>