<svg xmlns="http://www.w3.org/2000/svg" width="60" height="60" viewBox="0 0 60 60"><g fill="none" fill-rule="evenodd"><line x1="30.5" x2="30.5" y1="6.5" y2="46.5" stroke="#43536D" stroke-dasharray="2" stroke-linecap="square" stroke-opacity=".16"/><line x1="50.5" x2="50.5" y1="6.5" y2="46.5" stroke="#43536D" stroke-dasharray="2" stroke-linecap="square" stroke-opacity=".48"/><line x1="9.5" x2="9.5" y1="6.5" y2="46.5" stroke="#43536D" stroke-dasharray="2" stroke-linecap="square" stroke-opacity=".48"/><rect width="41" height="14" x="9.5" y="18.5" fill="#A5ADB9" stroke="#43536D" rx="1"/><g fill="#43536D" fill-rule="nonzero" transform="translate(13.482 50.577)"><path d="M2.52955211,1.25966575 C2.50966575,1.07329767 2.42628618,0.92841131 2.2794134,0.825006658 C2.13254062,0.721602006 1.94148393,0.66989968 1.70624334,0.66989968 C1.54147061,0.66989968 1.40035178,0.694474654 1.28288685,0.7436246 C1.16542192,0.792774547 1.0752286,0.860101873 1.01230691,0.945606578 C0.94938521,1.03111128 0.917635831,1.12840687 0.917058771,1.23749334 C0.915926847,1.32840243 0.93659557,1.40716553 0.979064941,1.47378263 C1.02153431,1.54039972 1.07884632,1.59679066 1.15100098,1.64295543 C1.22315563,1.68912021 1.30326705,1.72804399 1.39133523,1.75972678 C1.47940341,1.79140958 1.56847035,1.81790439 1.65853604,1.8392112 L2.06762695,1.94148393 C2.23239968,1.9798362 2.39113548,2.03153853 2.54383434,2.09659091 C2.6965332,2.16164329 2.83332409,2.24381325 2.95420699,2.34310081 C3.07508989,2.44238836 3.1710427,2.56234464 3.24206543,2.70296964 C3.31308816,2.84359464 3.34887695,3.00851163 3.34943182,3.19772061 C3.34887695,3.45397949 3.2833252,3.67898282 3.15277654,3.8727306 C3.02222789,4.06647838 2.83372914,4.21775679 2.58728027,4.32656583 C2.34083141,4.43537487 2.0431796,4.48977939 1.69432484,4.48977939 C1.35512473,4.48977939 1.06073553,4.4370783 0.811157227,4.33167614 C0.561578924,4.22627397 0.366688121,4.07272061 0.226484819,3.87101607 C0.0862815163,3.66931152 0.0107865767,3.42385032 0,3.13463246 L0.777299361,3.13463246 C0.788640803,3.28690962 0.835438121,3.41340221 0.917691317,3.51411022 C0.999944513,3.61481823 1.10776034,3.69010232 1.24113881,3.73996249 C1.37451727,3.78982267 1.52330433,3.81475275 1.6875,3.81475275 C1.85908647,3.81475275 2.01007635,3.78869074 2.14046964,3.73656672 C2.27086293,3.68444269 2.37299139,3.61171653 2.44685502,3.51838823 C2.52071866,3.42505993 2.55793901,3.31647283 2.55851607,3.19262695 C2.55793901,3.07899059 2.52498002,2.98481334 2.45963912,2.91009521 C2.39429821,2.83537709 2.30296742,2.77287709 2.18564675,2.72259521 C2.06832608,2.67231334 1.93125222,2.62728604 1.77442516,2.58751332 L1.27840909,2.45797452 C0.919322621,2.36564498 0.635658958,2.22558594 0.427418102,2.03779741 C0.219177246,1.85000888 0.115334251,1.59972035 0.115889116,1.28693182 C0.115334251,1.02954102 0.18486994,0.804471103 0.324496183,0.611722079 C0.464122425,0.418973056 0.654746316,0.26883212 0.896367853,0.161299272 C1.13798939,0.053766424 1.41135476,0 1.71646396,0 C2.02614524,0 2.29802912,0.0536221591 2.53211559,0.160866477 C2.76620206,0.268110795 2.94979581,0.416476163 3.08289684,0.60596258 C3.21599787,0.795448997 3.2849565,1.01335005 3.28977273,1.25966575 L2.52955211,1.25966575 Z"/><polygon points="3.861 .723 3.861 .06 7.342 .06 7.342 .723 5.993 .723 5.993 4.423 5.209 4.423 5.209 .723"/><path d="M8.57049179,4.42329545 L7.7267085,4.42329545 L9.26419518,0.0596590909 L10.2392484,0.0596590909 L11.7767351,4.42329545 L10.9329518,4.42329545 L9.76876727,0.954545455 L9.73467636,0.954545455 L8.57049179,4.42329545 Z M8.59775786,2.71192516 L10.8988942,2.71192516 L10.8988942,3.34773393 L8.59775786,3.34773393 L8.59775786,2.71192516 Z"/><polygon points="15.939 .06 15.939 4.423 15.237 4.423 13.18 1.451 13.144 1.451 13.144 4.423 12.353 4.423 12.353 .06 13.062 .06 15.114 3.034 15.153 3.034 15.153 .06"/><path d="M18.2778646 4.42329545 16.7983059 4.42329545 16.7983059.0596590909 18.3068286.0596590909C18.7403558.0596590909 19.1129421.146661932 19.4245876.320667614 19.7362331.494673295 19.9758682.744246049 20.143493 1.06938588 20.3111177 1.3945257 20.3949301 1.78351385 20.3949301 2.23635032 20.3949301 2.69089577 20.3108347 3.08159291 20.142644 3.40844172 19.9744533 3.73529053 19.7324045 3.98614502 19.4164977 4.16100519 19.1005908 4.33586537 18.7210464 4.42329545 18.2778646 4.42329545ZM17.5892549 3.73974609 18.2403779 3.73974609C18.5432011 3.73974609 18.7963194 3.68406539 18.999733 3.57270397 19.2031465 3.46134255 19.3558454 3.29444469 19.4578296 3.07201039 19.5598138 2.84957608 19.6108059 2.57102273 19.6108059 2.23635032 19.6108059 1.90340909 19.5599525 1.62635387 19.4582457 1.40518466 19.3565389 1.18401545 19.2056878 1.01839378 19.0056922.908319647 18.8056967.798245517 18.5579716.743208452 18.2625171.743208452L17.5892549.743208452 17.5892549 3.73974609ZM21.7057343 4.42329545 20.861951 4.42329545 22.3994376.0596590909 23.3744909.0596590909 24.9119776 4.42329545 24.0681943 4.42329545 22.9040097.954545455 22.8699188.954545455 21.7057343 4.42329545ZM21.7330003 2.71192516 24.0341367 2.71192516 24.0341367 3.34773393 21.7330003 3.34773393 21.7330003 2.71192516ZM25.4880981 4.42329545 25.4880981.0596590909 27.126193.0596590909C27.4602883.0596590909 27.7415383.11796986 27.969943.234591397 28.1983476.351212935 28.3710716.514354359 28.4881148.724015669 28.605158.93367698 28.6636796 1.17756792 28.6636796 1.45568848 28.6636796 1.73494096 28.6044478 1.97712846 28.4859841 2.18225098 28.3675204 2.38737349 28.1932318 2.54568759 27.9631181 2.65719327 27.7330045 2.76869895 27.4500455 2.82445179 27.1142412 2.82445179L25.9483587 2.82445179 25.9483587 2.16986639 27.0085727 2.16986639C27.2040183 2.16986639 27.3643133 2.14245605 27.4894576 2.08763539 27.6146018 2.03281472 27.7072144 1.95234819 27.7672951 1.8462358 27.8273759 1.7401234 27.8574163 1.60994096 27.8574163 1.45568848 27.8574163 1.30085893 27.8271595 1.16847368 27.766646 1.05853271 27.7061324.948591752 27.6130926.864574086 27.4875266.806479714 27.3619607.748385343 27.2006004.719338157 27.0034457.719338157L26.2790472.719338157 26.2790472 4.42329545 25.4880981 4.42329545ZM27.7432251 2.44602273 28.8239136 4.42329545 27.9409457 4.42329545 26.8807318 2.44602273 27.7432251 2.44602273ZM30.8710702 4.42329545 29.3915114 4.42329545 29.3915114.0596590909 30.9000341.0596590909C31.3335613.0596590909 31.7061476.146661932 32.0177931.320667614 32.3294386.494673295 32.5690738.744246049 32.7366985 1.06938588 32.9043232 1.3945257 32.9881356 1.78351385 32.9881356 2.23635032 32.9881356 2.69089577 32.9040402 3.08159291 32.7358496 3.40844172 32.5676589 3.73529053 32.3256101 3.98614502 32.0097032 4.16100519 31.6937963 4.33586537 31.314252 4.42329545 30.8710702 4.42329545ZM30.1824604 3.73974609 30.8335835 3.73974609C31.1364066 3.73974609 31.389525 3.68406539 31.5929385 3.57270397 31.796352 3.46134255 31.9490509 3.29444469 32.0510351 3.07201039 32.1530193 2.84957608 32.2040114 2.57102273 32.2040114 2.23635032 32.2040114 1.90340909 32.153158 1.62635387 32.0514512 1.40518466 31.9497445 1.18401545 31.7988933 1.01839378 31.5988978.908319647 31.3989022.798245517 31.1511771.743208452 30.8557226.743208452L30.1824604.743208452 30.1824604 3.73974609Z"/></g></g></svg>