<?xml version="1.0" encoding="UTF-8"?>
<svg width="60px" height="60px" viewBox="0 0 60 60" version="1.1" xmlns="http://www.w3.org/2000/svg" xmlns:xlink="http://www.w3.org/1999/xlink">
    <title>tabbedcontent</title>
    <g id="tabbedcontent" stroke="none" stroke-width="1" fill="none" fill-rule="evenodd">
        <g id="Group" transform="translate(9.000000, 15.000000)" fill="#43536D" fill-rule="nonzero">
            <path d="M41.0006317,7.67060688 L41.0006317,28.1706069 C41.0142467,28.856071 40.746876,29.5172717 40.2606317,30.0006069 C39.7955743,30.4977619 39.1412648,30.7740259 38.4606317,30.7606069 L2.58063172,30.7606069 C1.89428293,30.7734349 1.23403513,30.497727 0.760631719,30.0006069 C0.260913661,29.5248385 -0.0150237562,28.8604102 0.000631718958,28.1706069 L0.000631718958,8.57060688 C0.00152102243,7.88700595 0.126899963,7.20928195 0.370631719,6.57060688 L2.21063172,1.64060688 C2.41024602,1.14847853 2.76023399,0.731992853 3.21063172,0.45060688 C3.61461749,0.164657383 4.09573749,0.00777042548 4.59063172,0.000606879813 L12.4206317,0.000606879813 C12.8414918,-0.0020841399 13.2567147,0.097432074 13.6306317,0.29060688 C13.9868581,0.469576764 14.2901924,0.738441257 14.5106317,1.07060688 C14.9918885,0.395340487 15.7714311,-0.00375548984 16.6006317,0.000606879813 L24.4006317,0.000606879813 C25.2331219,-0.0178215451 26.0188633,0.384447986 26.4906317,1.07060688 C26.7085201,0.736232459 27.0125187,0.466779114 27.3706317,0.29060688 C27.7445488,0.097432074 28.1597716,-0.0020841399 28.5806317,0.000606879813 L36.4106317,0.000606879813 C36.9226085,-0.00249415066 37.4226932,0.15487518 37.8406317,0.45060688 C38.2698073,0.742665017 38.600897,1.15739847 38.7906317,1.64060688 L40.5106317,6.19060688 C40.8262964,6.61974512 40.9978416,7.13788179 41.0006317,7.67060688 Z M39.2806317,7.67060688 C39.2944318,7.58784488 39.2944318,7.50336888 39.2806317,7.42060688 C39.1745569,7.35274746 39.0800278,7.26834649 39.0006317,7.17060688 L39.0006317,7.05060688 C38.8574851,6.91628206 38.6668326,6.84433771 38.4706317,6.85060688 L15.3806317,6.85060688 C15.1933004,6.85279391 15.0104943,6.79303038 14.8606317,6.68060688 C14.7108022,6.57057468 14.6045732,6.41123111 14.5606317,6.23060688 L13.2406317,2.30060688 C13.2042966,2.1219981 13.0957167,1.96636692 12.9406317,1.87060688 C12.7860013,1.77016264 12.6050024,1.71795143 12.4206317,1.72060688 L4.59063172,1.72060688 C4.2411806,1.70230766 3.92230995,1.91897618 3.81063172,2.25060688 L2.00063172,7.17060688 C1.83130826,7.61776195 1.74653644,8.09248417 1.75026318,8.57060688 L1.75026318,28.1706069 C1.74370905,28.400189 1.83458066,28.6219157 2.00063172,28.7806069 C2.15932292,28.9466579 2.38104964,29.0375295 2.61063172,29.0306069 L38.4606317,29.0306069 C38.6778738,29.0337679 38.8858113,28.9425673 39.0306317,28.7806069 C39.1966828,28.6219157 39.2875544,28.400189 39.2806317,28.1706069 L39.2806317,7.67060688 Z M16.0906317,1.87060688 C15.9355467,1.96636692 15.8269668,2.1219981 15.7906317,2.30060688 L15.4206317,3.40060688 L16.0006317,5.13060688 L26.1606317,5.13060688 L25.2106317,2.30060688 C25.1742966,2.1219981 25.0657167,1.96636692 24.9106317,1.87060688 C24.7596133,1.77039537 24.5818573,1.71811419 24.4006317,1.72060688 L16.6006317,1.72060688 C16.4194062,1.71811419 16.2416502,1.77039537 16.0906317,1.87060688 L16.0906317,1.87060688 Z M28.0906317,1.87060688 C27.9355467,1.96636692 27.8269668,2.1219981 27.7906317,2.30060688 L27.4206317,3.40060688 L28.0006317,5.13060688 L38.2906317,5.13060688 L37.2306317,2.25060688 C37.0938007,1.92086525 36.7674772,1.7099488 36.4106317,1.72060688 L28.5806317,1.72060688 C28.396261,1.71795143 28.2152621,1.77016264 28.0606317,1.87060688 L28.0906317,1.87060688 Z" id="Shape"></path>
        </g>
    </g>
</svg>