<?xml version="1.0" encoding="UTF-8"?>
<svg width="60px" height="60px" viewBox="0 0 60 60" version="1.1" xmlns="http://www.w3.org/2000/svg" xmlns:xlink="http://www.w3.org/1999/xlink">
    <title>testimonial</title>
    <g id="testimonial" stroke="none" stroke-width="1" fill="none" fill-rule="evenodd">
        <g id="Group" transform="translate(10.000000, 19.000000)" fill="#43536D" fill-rule="nonzero">
            <path d="M3.65,3.61282618 C4.2,3.23282618 4.65,3.23282618 5.04,3.61282618 C5.1990014,3.82710553 5.28647307,4.08602167 5.29,4.35282618 C5.29880481,4.60263285 5.1917818,4.84251201 5,5.00282618 L2.13,7.71282618 L5,10.4128262 C5.33139698,10.8206586 5.33139698,11.4049938 5,11.8128262 C4.7948671,11.9516337 4.55699488,12.0343718 4.31,12.0528262 C4.05955612,12.0360989 3.81802103,11.9532868 3.61,11.8128262 L0.25,8.36282618 C0.0999451563,8.17040642 0.0126699788,7.93650895 0,7.69282618 C0.0105400884,7.44261875 0.0978236484,7.20171612 0.25,7.00282618 L3.65,3.61282618 Z M30.65,3.61282618 L30.65,12.8328262 C30.6513412,13.3450302 30.5598636,13.853239 30.38,14.3328262 C30.2172042,14.7864002 29.9579022,15.1992363 29.62,15.5428262 C28.9338633,16.2163885 28.0008491,16.5780219 27.04,16.5428262 L19.89,16.5428262 L12.71,21.8328262 C12.5932098,21.9921118 12.4075142,22.0862201 12.21,22.0862201 C12.0124858,22.0862201 11.8267902,21.9921118 11.71,21.8328262 C11.4418619,21.5719491 11.3731318,21.1676543 11.54,20.8328262 L13.76,16.5628262 L12.38,16.5628262 C11.4191509,16.5980219 10.4861367,16.2363885 9.8,15.5628262 C9.43235507,15.1842088 9.12842407,14.7485744 8.9,14.2728262 C8.70446077,13.8251816 8.60563894,13.3412954 8.6098617,12.8528262 L8.6098617,3.61282618 C8.65107138,2.65196758 9.01381651,1.73277847 9.64,1.00282618 C10.324151,0.326192392 11.2585478,-0.0359769066 12.22,0.00282618026 L27.22,0.00282618026 C28.1842756,-0.035153218 29.1214453,0.326688377 29.81,1.00282618 C30.4876831,1.69130124 30.8056686,2.65635021 30.67,3.61282618 L30.65,3.61282618 Z M27.88,1.82282618 C27.6664383,1.75580793 27.4438291,1.72207927 27.22,1.72282618 L12.22,1.72282618 C11.7096984,1.71314931 11.2128871,1.88703327 10.82,2.21282618 C10.38773,2.54536082 10.1450673,3.06801883 10.17,3.61282618 L10.17,13.0028262 C10.1751899,13.2437412 10.2368426,13.4800766 10.35,13.6928262 C10.471634,13.9357831 10.6301818,14.1584247 10.82,14.3528262 C11.1342078,14.8125705 11.6636799,15.0773066 12.22,15.0528262 L15.13,15.0528262 C15.2658696,15.0319521 15.4041304,15.0319521 15.54,15.0528262 C15.62,15.0528262 15.7,15.1728262 15.79,15.3428262 C15.8618919,15.4752855 15.902914,15.6222815 15.91,15.7728262 C15.902914,15.9233709 15.8618919,16.0703668 15.79,16.2028262 L14.79,18.4128262 L19.26,15.0128262 L19.75,14.8428262 L27.25,14.8428262 C27.7838001,14.7863825 28.2800829,14.5417859 28.65,14.1528262 C28.9930511,13.7859478 29.170227,13.2941945 29.14,12.7928262 L29.14,3.61282618 C29.1621496,3.10060399 28.986741,2.59943666 28.65,2.21282618 C28.4074789,2.05660376 28.1494369,1.92590716 27.88,1.82282618 Z M35.79,11.8228262 C35.3814605,12.1414973 34.8085395,12.1414973 34.4,11.8228262 C34.2588697,11.6143592 34.1728602,11.3735324 34.15,11.1228262 C34.1741182,10.8723989 34.2600199,10.6318742 34.4,10.4228262 L37.15,7.72282618 L34.4,5.00282618 C34.2572603,4.79517851 34.1710959,4.55391809 34.15,4.30282618 C34.16953,4.06672645 34.2562853,3.84116258 34.4,3.65282618 C34.95,3.27282618 35.4,3.27282618 35.79,3.65282618 L39.2,7.00282618 C39.3508782,7.2205996 39.4343443,7.47795356 39.44,7.74282618 C39.4482871,7.97068345 39.3613286,8.19170293 39.2,8.35282618 L35.79,11.8228262 Z" id="Shape"></path>
        </g>
    </g>
</svg>