<?xml version="1.0" encoding="UTF-8"?>
<svg width="60px" height="60px" viewBox="0 0 60 60" version="1.1" xmlns="http://www.w3.org/2000/svg" xmlns:xlink="http://www.w3.org/1999/xlink">
    <title>text</title>
    <g id="text" stroke="none" stroke-width="1" fill="none" fill-rule="evenodd">
        <g id="Group" transform="translate(9.000000, 16.000000)" fill="#43536D" fill-rule="nonzero">
            <path d="M40.1408435,1.68036854 L0.860843528,1.68036854 C0.631261453,1.68729121 0.409534733,1.5964196 0.250843528,1.43036854 C0.0825990861,1.27318222 -0.00869777464,1.05041788 0.000843528478,0.82036854 C-0.00970760783,0.595948175 0.0822672682,0.378887467 0.250843528,0.23036854 C0.416681364,0.0775379329 0.635385398,-0.00492424405 0.860843528,0.000368540473 L40.1408435,0.000368540473 C40.3704256,-0.00655412564 40.5921523,0.0843174811 40.7508435,0.25036854 C40.9128039,0.395188917 41.0040046,0.603126477 41.0009231,0.82036854 C41.0021498,1.04303812 40.9117315,1.25642532 40.7508435,1.41036854 C40.5973441,1.58601319 40.3740668,1.68484083 40.1408435,1.68036854 Z M28.2108435,6.81036854 L0.860843528,6.81036854 C0.632158105,6.81248971 0.41226564,6.72236985 0.250843528,6.56036854 C0.0973349877,6.41368268 0.00755995135,6.2125866 0.000843528478,6.00036854 C-0.00986775378,5.77302409 0.0818732521,5.55284568 0.250843528,5.40036854 C0.417680676,5.25024881 0.636593062,5.1712968 0.860843528,5.18036854 L28.2108435,5.18036854 C28.4257974,5.17840661 28.6320321,5.26524226 28.7808435,5.42036854 C28.9301888,5.57561983 29.0096567,5.78512609 29.0008435,6.00036854 C28.9987426,6.22234286 28.908862,6.43446097 28.7508435,6.59036854 C28.6085395,6.73451702 28.4133671,6.81403171 28.2108435,6.81036854 L28.2108435,6.81036854 Z M40.1408435,11.9303685 L0.860843528,11.9303685 C0.631261453,11.9372912 0.409534733,11.8464196 0.250843528,11.6803685 C0.0825990861,11.5231822 -0.00869777464,11.3004179 0.000843528478,11.0703685 C-0.00970760783,10.8459482 0.0822672682,10.6288875 0.250843528,10.4803685 C0.416681364,10.3275379 0.635385398,10.2450758 0.860843528,10.2503685 L40.1408435,10.2503685 C40.3704256,10.2434459 40.5921523,10.3343175 40.7508435,10.5003685 C40.9128039,10.6451889 41.0040046,10.8531265 41.0009231,11.0703685 C41.0021498,11.2930381 40.9117315,11.5064253 40.7508435,11.6603685 C40.5973441,11.8360132 40.3740668,11.9348408 40.1408435,11.9303685 Z M28.2108435,17.0603685 L0.860843528,17.0603685 C0.632158105,17.0624897 0.41226564,16.9723698 0.250843528,16.8103685 C0.0847924691,16.6516773 -0.00607913763,16.4299506 0.000843528478,16.2003685 C-0.00986775378,15.9730241 0.0818732521,15.7528457 0.250843528,15.6003685 C0.417680676,15.4502488 0.636593062,15.3712968 0.860843528,15.3803685 L28.2108435,15.3803685 C28.4257974,15.3784066 28.6320321,15.4652423 28.7808435,15.6203685 C28.9411963,15.7705317 29.0317793,15.9806844 29.0308507,16.2003685 C29.0287426,16.4223429 28.938862,16.634461 28.7808435,16.7903685 C28.6406297,16.9608865 28.431606,17.0598977 28.2108435,17.0603685 Z M40.1408435,22.1803685 L0.860843528,22.1803685 C0.631261453,22.1872912 0.409534733,22.0964196 0.250843528,21.9303685 C0.0825990861,21.7731822 -0.00869777464,21.5504179 0.000843528478,21.3203685 C-0.00970760783,21.0959482 0.0822672682,20.8788875 0.250843528,20.7303685 C0.416681364,20.5775379 0.635385398,20.4950758 0.860843528,20.5003685 L40.1408435,20.5003685 C40.3704256,20.4934459 40.5921523,20.5843175 40.7508435,20.7503685 C40.9128039,20.8951889 41.0040046,21.1031265 41.0009231,21.3203685 C41.0021498,21.5430381 40.9117315,21.7564253 40.7508435,21.9103685 C40.5973441,22.0860132 40.3740668,22.1848408 40.1408435,22.1803685 L40.1408435,22.1803685 Z M28.2108435,27.3103685 L0.860843528,27.3103685 C0.632158105,27.3124897 0.41226564,27.2223698 0.250843528,27.0603685 C0.0847924691,26.9016773 -0.00607913763,26.6799506 0.000843528478,26.4503685 C-0.00986775378,26.2230241 0.0818732521,26.0028457 0.250843528,25.8503685 C0.417680676,25.7002488 0.636593062,25.6212968 0.860843528,25.6303685 L28.2108435,25.6303685 C28.4257974,25.6284066 28.6320321,25.7152423 28.7808435,25.8703685 C28.9411963,26.0205317 29.0317793,26.2306844 29.0308507,26.4503685 C29.0287426,26.6723429 28.938862,26.884461 28.7808435,27.0403685 C28.6406297,27.2108865 28.431606,27.3098977 28.2108435,27.3103685 L28.2108435,27.3103685 Z" id="Shape"></path>
        </g>
    </g>
</svg>