<svg xmlns="http://www.w3.org/2000/svg" width="60" height="60" viewBox="0 0 60 60"><g fill="none" fill-rule="evenodd"><line x1="30.5" x2="30.5" y1="6.5" y2="46.5" stroke="#43536D" stroke-dasharray="2" stroke-linecap="square" stroke-opacity=".163"/><line x1="50.5" x2="50.5" y1="6.5" y2="46.5" stroke="#43536D" stroke-dasharray="2" stroke-linecap="square" stroke-opacity=".48"/><line x1="9.5" x2="9.5" y1="6.5" y2="46.5" stroke="#43536D" stroke-dasharray="2" stroke-linecap="square" stroke-opacity=".48"/><rect width="19" height="14" x="20.5" y="18.5" fill="#A5ADB9" stroke="#43536D" rx="1"/><g fill="#43536D" fill-rule="nonzero" transform="translate(22.98 50.636)"><polygon points="0 .663 0 0 3.481 0 3.481 .663 2.132 .663 2.132 4.364 1.348 4.364 1.348 .663"/><polygon points="4.149 4.364 4.149 0 4.94 0 4.94 1.848 6.963 1.848 6.963 0 7.754 0 7.754 4.364 6.963 4.364 6.963 2.511 4.94 2.511 4.94 4.364"/><polygon points="9.404 0 9.404 4.364 8.613 4.364 8.613 0"/><polygon points="13.849 0 13.849 4.364 13.147 4.364 11.09 1.391 11.054 1.391 11.054 4.364 10.263 4.364 10.263 0 10.972 0 13.024 2.974 13.064 2.974 13.064 0"/></g></g></svg>