<?xml version="1.0" encoding="UTF-8"?>
<svg width="60px" height="60px" viewBox="0 0 60 60" version="1.1" xmlns="http://www.w3.org/2000/svg" xmlns:xlink="http://www.w3.org/1999/xlink">
    <title>userform</title>
    <g id="userform" stroke="none" stroke-width="1" fill="none" fill-rule="evenodd">
        <g id="Group" transform="translate(9.000000, 9.000000)" fill="#43536D" fill-rule="nonzero">
            <path d="M0.250766461,1.48036854 C0.0842101714,1.31788152 -0.00649129816,1.09294187 0.000362036877,0.86036854 C-0.0061562051,0.630786465 0.0847154016,0.409059745 0.250766461,0.25036854 C0.409457665,0.0843174811 0.631184386,-0.00655412564 0.860766461,0.000368540473 L40.1407665,0.000368540473 C40.3739898,-0.00410374527 40.597267,0.0947238915 40.7507665,0.27036854 C40.9116544,0.424311762 41.0020727,0.637698956 41.0007804,0.86036854 C41.0002147,1.08559118 40.9102994,1.30138806 40.7507665,1.46036854 C40.5931058,1.62905007 40.3716363,1.7234469 40.1407665,1.72036854 L0.860766461,1.72036854 C0.633321076,1.72628221 0.413205489,1.63967936 0.250766461,1.48036854 Z M40.7507665,5.39036854 C40.9127678,5.55179065 41.0028876,5.77168312 41.0008031,6.00036854 C40.9997691,6.22257104 40.9097165,6.43509518 40.7507665,6.59036854 C40.597267,6.76601319 40.3739898,6.86484083 40.1407665,6.86036854 L0.860766461,6.86036854 C0.629648552,6.86471345 0.407685267,6.77010615 0.250766461,6.60036854 C0.0873215683,6.44404205 -0.00332089362,6.22650014 0.000522152455,6.00036854 C-0.00477185719,5.77062927 0.084055396,5.54865226 0.24655279,5.38615487 C0.409050184,5.22365748 0.631027189,5.13483022 0.860766461,5.14036854 L40.1407665,5.14036854 C40.3710542,5.12945733 40.5943717,5.22098092 40.7507665,5.39036854 L40.7507665,5.39036854 Z M40.7507665,10.5003685 C40.9168175,10.6590597 41.0076891,10.8807865 41.001135,11.1103685 L41.001135,31.6103685 C41.0002147,31.8355912 40.9102994,32.0513881 40.7507665,32.2103685 C40.5931058,32.3790501 40.3716363,32.4734469 40.1407665,32.4704415 L0.860766461,32.4704415 C0.629896632,32.4734469 0.408427154,32.3790501 0.250766461,32.2103685 C0.0912335644,32.0513881 0.00131819735,31.8355912 0.00039792054,31.6103685 L0.00039792054,11.1103685 C-0.0061562051,10.8807865 0.0847154016,10.6590597 0.250766461,10.5003685 C0.409457665,10.3343175 0.631184386,10.2434459 0.860766461,10.2503685 L40.1407665,10.2503685 C40.3703485,10.2434459 40.5920753,10.3343175 40.7507665,10.5003685 Z M14.3707665,35.1603685 C15.0245772,35.7939272 15.3866265,36.6700864 15.3707665,37.5803685 C15.3818768,38.4897445 15.0205733,39.3640989 14.3707665,40.0003685 C13.7526034,40.6464589 12.8949111,41.0083544 12.0007665,41.0003685 L3.40076646,41.0003685 C2.49693821,41.0130753 1.62816732,40.6510875 1.00076646,40.0003685 C-0.331579368,38.6621094 -0.331579368,36.4986277 1.00076646,35.1603685 C1.62885438,34.5106563 2.49716923,34.1488584 3.40076646,34.1603685 L12.0007665,34.1603685 C12.8939726,34.157097 13.7498811,34.5182398 14.3707665,35.1603685 Z M1.72076646,30.7503685 L34.7207665,30.7503685 L39.3107665,26.1203685 L39.3107665,12.0003685 L1.72076646,12.0003685 L1.72076646,30.7503685 Z M13.1607665,38.7503685 C13.4814088,38.4383779 13.6587558,38.007678 13.6507665,37.5603685 C13.6583725,37.107258 13.4815083,36.6705117 13.1607665,36.3503685 C12.8546149,36.0417043 12.4354273,35.871861 12.0007665,35.8803685 L3.40076646,35.8803685 C2.94996316,35.8751226 2.51786648,36.0603069 2.21076646,36.3903685 C1.8938455,36.7130319 1.71765824,37.1481066 1.72072602,37.6003685 C1.71808543,38.0467487 1.89422385,38.4756228 2.20986802,38.791267 C2.52551218,39.1069112 2.95438625,39.2830496 3.40076646,39.2803987 L12.0007665,39.2803987 C12.4370058,39.2768076 12.8540813,39.1006292 13.1607665,38.7903685 L13.1607665,38.7503685 Z M39.2807665,30.7503685 L39.2807665,28.5403685 L37.1107665,30.7503685 L39.2807665,30.7503685 Z" id="Shape"></path>
        </g>
    </g>
</svg>