<?xml version="1.0" encoding="UTF-8"?>
<svg width="60px" height="60px" viewBox="0 0 60 60" version="1.1" xmlns="http://www.w3.org/2000/svg" xmlns:xlink="http://www.w3.org/1999/xlink">
    <title>video</title>
    <g id="video" stroke="none" stroke-width="1" fill="none" fill-rule="evenodd">
        <g id="Group" transform="translate(9.000000, 15.000000)" fill="#43536D" fill-rule="nonzero">
            <path d="M20.510327,30.2634786 C18.510327,30.2634786 16.510327,30.1801453 14.510327,30.0134786 L5.45032696,29.1934786 C4.46466469,29.1233713 3.51388396,28.7995546 2.69032696,28.2534786 C0.999376892,27.1548686 -0.0147263304,25.2699184 0.000161689716,23.2534786 L0.000161689716,7.00347861 C-0.0125365416,4.98510197 1.00556135,3.09973552 2.70032696,2.00347861 C3.52388396,1.45740258 4.47466469,1.13358595 5.46032696,1.06347861 L14.520327,0.293478608 C18.510757,-0.0978262028 22.5298969,-0.0978262028 26.520327,0.293478608 L35.580327,1.07347861 C36.5581811,1.14396959 37.501594,1.46417908 38.320327,2.00347861 C40.011277,3.10208859 41.0253803,4.98703882 41.0104922,7.00347861 L41.0104922,23.2534786 C41.0253803,25.2699184 40.011277,27.1548686 38.320327,28.2534786 C37.49677,28.7995546 36.5459892,29.1233713 35.560327,29.1934786 L26.500327,30.0034786 C24.5336603,30.1834786 22.5369936,30.2701453 20.510327,30.2634786 Z M20.510327,1.72347861 C18.570327,1.72347861 16.610327,1.80347861 14.650327,1.97347861 L5.65032696,2.75347861 C4.57962354,2.83755411 3.58153418,3.32765534 2.86032696,4.12347861 C2.1229322,4.8996605 1.71751208,5.93294363 1.73032696,7.00347861 L1.73032696,23.2534786 C1.71489281,24.3274586 2.12050012,25.3648083 2.86032696,26.1434786 C3.57963858,26.9307539 4.56806473,27.4196145 5.63032696,27.5134786 L14.630327,28.2934786 C18.5300254,28.6234628 22.4506285,28.6234628 26.350327,28.2934786 L35.350327,27.5134786 C36.4125892,27.4196145 37.4010154,26.9307539 38.120327,26.1434786 C38.8601538,25.3648083 39.2657611,24.3274586 39.250327,23.2534786 L39.250327,7.00347861 C39.2657611,5.92949861 38.8601538,4.89214895 38.120327,4.11347861 C37.4040396,3.32219235 36.4139415,2.83250483 35.350327,2.74347861 L26.350327,1.96347861 C24.410327,1.80347861 22.450327,1.72347861 20.510327,1.72347861 Z M16.250327,23.6634786 C16.1076301,23.676786 15.9643305,23.64533 15.840327,23.5734786 C15.5561675,23.4439183 15.378408,23.1555529 15.390327,22.8434786 L15.390327,7.46347861 C15.3719775,7.13661508 15.5596926,6.8330758 15.860327,6.70347861 C16.118451,6.54695032 16.442203,6.54695032 16.700327,6.70347861 L28.700327,14.4134786 C28.9532397,14.5409708 29.100644,14.811876 29.070327,15.0934786 C29.086618,15.3937299 28.9467102,15.6811082 28.700327,15.8534786 L16.700327,23.5134786 C16.5727666,23.6150865 16.4133399,23.6682287 16.250327,23.6634786 Z M17.110327,9.00347861 L17.110327,21.2434786 L26.620327,15.1334786 L17.110327,9.00347861 Z" id="Shape"></path>
        </g>
    </g>
</svg>