<svg xmlns="http://www.w3.org/2000/svg" width="60" height="60" viewBox="0 0 60 60"><g fill="none" fill-rule="evenodd"><line x1="30.5" x2="30.5" y1="6.5" y2="46.5" stroke="#43536D" stroke-dasharray="2" stroke-linecap="square" stroke-opacity=".16"/><line x1="50.5" x2="50.5" y1="6.5" y2="46.5" stroke="#43536D" stroke-dasharray="2" stroke-linecap="square" stroke-opacity=".48"/><line x1="9.5" x2="9.5" y1="6.5" y2="46.5" stroke="#43536D" stroke-dasharray="2" stroke-linecap="square" stroke-opacity=".48"/><rect width="53" height="14" x="3.5" y="18.5" fill="#A5ADB9" stroke="#43536D" rx="1"/><g fill="#43536D" fill-rule="nonzero" transform="translate(22.276 50.636)"><polygon points="1.231 4.364 0 0 .851 0 1.636 3.206 1.676 3.206 2.516 0 3.29 0 4.13 3.21 4.169 3.21 4.955 0 5.806 0 4.575 4.364 3.794 4.364 2.92 1.302 2.886 1.302 2.011 4.364"/><polygon points="7.144 0 7.144 4.364 6.353 4.364 6.353 0"/><path d="M9.48240488,4.36363636 L8.00284611,4.36363636 L8.00284611,0 L9.51136884,0 C9.944896,0 10.3174823,0.0870028409 10.6291278,0.261008523 C10.9407734,0.435014205 11.1804085,0.684586958 11.3480332,1.00972678 C11.5156579,1.33486661 11.5994703,1.72385476 11.5994703,2.17669123 C11.5994703,2.63123668 11.515375,3.02193382 11.3471843,3.34878263 C11.1789936,3.67563144 10.9369448,3.92648593 10.6210379,4.1013461 C10.305131,4.27620628 9.9255867,4.36363636 9.48240488,4.36363636 Z M8.79379515,3.680087 L9.4449182,3.680087 C9.74774135,3.680087 10.0008597,3.62440629 10.2042732,3.51304488 C10.4076868,3.40168346 10.5603856,3.2347856 10.6623698,3.0123513 C10.764354,2.78991699 10.8153461,2.51136364 10.8153461,2.17669123 C10.8153461,1.84375 10.7644927,1.56669478 10.662786,1.34552557 C10.5610792,1.12435636 10.410228,0.958734686 10.2102325,0.848660556 C10.0102369,0.738586426 9.76251186,0.683549361 9.46705731,0.683549361 L8.79379515,0.683549361 L8.79379515,3.680087 Z"/><polygon points="12.349 4.364 12.349 0 15.188 0 15.188 .663 13.14 .663 13.14 1.848 15.041 1.848 15.041 2.511 13.14 2.511 13.14 3.701 15.205 3.701 15.205 4.364"/></g></g></svg>