<?xml version="1.0" encoding="UTF-8"?>
<svg width="24px" height="24px" viewBox="0 0 24 24" version="1.1" xmlns="http://www.w3.org/2000/svg" xmlns:xlink="http://www.w3.org/1999/xlink">
    <title>facebook-icon</title>
    <g id="facebook-icon" stroke="none" stroke-width="1" fill="none" fill-rule="evenodd">
        <path d="M12,0 C18.627417,0 24,5.372583 24,12 C24,18.627417 18.627417,24 12,24 C5.372583,24 0,18.627417 0,12 C0,5.372583 5.372583,0 12,0 Z M14.9844659,5.4 L13.2110848,5.4 C12.184875,5.4 11.4479639,5.64961123 11.0000639,6.14883368 C10.5521639,6.64815444 10.3282618,7.38361784 10.3282618,8.35551881 L10.3282618,9.72518545 L9,9.72518545 L9,12 L10.328166,12 L10.328166,18.6 L12.9922649,18.6 L12.9922649,12 L14.765646,12 L15,9.72518545 L12.9922649,9.72518545 L12.9922649,8.58782733 C12.9922649,8.4170614 12.9999361,8.28483332 13.0155661,8.19143802 C13.0311002,8.0978461 13.0663875,8.00582715 13.1211404,7.91498793 C13.1757975,7.82424703 13.2643994,7.76152471 13.3867545,7.72682098 C13.5092054,7.69201895 13.6720258,7.67471624 13.8752158,7.67471624 L14.9844659,7.67471624 L14.9844659,5.4 Z" id="Combined-Shape" fill="#000000"></path>
    </g>
</svg>