<?xml version="1.0" encoding="UTF-8"?>
<svg width="24px" height="24px" viewBox="0 0 24 24" version="1.1" xmlns="http://www.w3.org/2000/svg" xmlns:xlink="http://www.w3.org/1999/xlink">
    <title>twitter-icon</title>
    <g id="twitter-icon" stroke="none" stroke-width="1" fill="none" fill-rule="evenodd">
        <path d="M12,0 C18.627417,0 24,5.372583 24,12 C24,18.627417 18.627417,24 12,24 C5.372583,24 0,18.627417 0,12 C0,5.372583 5.372583,0 12,0 Z M14.3071316,7.2 C13.6269499,7.2 13.0470479,7.43621875 12.5672386,7.90874831 C12.0875227,8.38127787 11.8477115,8.95249274 11.8477115,9.62248497 C11.8477115,9.80245678 11.8679917,9.98749173 11.9086456,10.1774978 C10.9035132,10.1275107 9.96062336,9.87877219 9.07988256,9.43128218 C8.19914175,8.98370012 7.45167094,8.3874457 6.83747011,7.64242686 C6.61410737,8.01737579 6.50242599,8.42491298 6.50242599,8.86494635 C6.50242599,9.27994016 6.60139719,9.66501539 6.79943303,10.0199879 C6.99737541,10.3749604 7.26391539,10.6624551 7.59895951,10.8824717 C7.20298129,10.8674664 6.83242342,10.7649147 6.48728592,10.5749087 L6.48728592,10.6049193 C6.48728592,11.1899428 6.67382653,11.7036219 7.04690773,12.1462328 C7.41998894,12.5888438 7.8908264,12.8675009 8.45932664,12.9824804 C8.24615073,13.0374385 8.03035802,13.0649636 7.81213542,13.0649636 C7.66998699,13.0649636 7.51512839,13.0524438 7.34765306,13.0275884 C7.50503501,13.5125457 7.79437855,13.9112454 8.21568368,14.2237795 C8.63698881,14.5364057 9.11418135,14.6975058 9.64716786,14.7076321 C8.75381033,15.3975087 7.73606125,15.7425391 6.59392061,15.7425391 C6.37560455,15.7425391 6.17766217,15.7326889 6,15.7126205 C7.14214064,16.4375708 8.40100934,16.8 9.77669956,16.8 C10.6497769,16.8 11.4695836,16.6638474 12.2359327,16.3913581 C13.0025623,16.1188688 13.6573235,15.7538621 14.2004969,15.2962458 C14.7435768,14.8388136 15.2118909,14.3125227 15.6052523,13.717465 C15.9986137,13.1224994 16.2916955,12.5012974 16.4846847,11.8537672 C16.6775804,11.2061448 16.7740282,10.5575099 16.7740282,9.90740197 C16.7740282,9.76738299 16.7715049,9.66243779 16.7663647,9.59238227 C17.2486974,9.24753603 17.6599092,8.82996462 18,8.34003625 C17.5279476,8.54007652 17.0557083,8.66499813 16.5838428,8.7151693 C17.1168293,8.40014959 17.4772938,7.95514513 17.6651428,7.38015592 C17.17767,7.66507293 16.6573936,7.86005006 16.1041269,7.96508731 C15.6167475,7.45509047 15.0178737,7.2 14.3071316,7.2 Z" id="Combined-Shape" fill="#000000"></path>
    </g>
</svg>