<?xml version="1.0" encoding="UTF-8"?>
<svg width="24px" height="24px" viewBox="0 0 24 24" version="1.1" xmlns="http://www.w3.org/2000/svg" xmlns:xlink="http://www.w3.org/1999/xlink">
    <title>youtube-icon</title>
    <g id="youtube-icon" stroke="none" stroke-width="1" fill="none" fill-rule="evenodd">
        <path d="M12,0 C18.627417,0 24,5.372583 24,12 C24,18.627417 18.627417,24 12,24 C5.372583,24 0,18.627417 0,12 C0,5.372583 5.372583,0 12,0 Z M11.7,7.2 C9.3949274,7.2 7.67247945,7.25859847 6.53275068,7.37570911 C6.16818493,7.4132501 5.84983973,7.54917439 5.57780959,7.78356826 C5.30568493,8.01787584 5.12855342,8.30620793 5.04641507,8.64839192 C4.96947534,8.95312122 4.91162877,9.29884356 4.8731589,9.68555894 C4.83468904,10.072188 4.81285479,10.3921063 4.80775068,10.6453138 C4.80428493,10.8140613 4.80199543,11.0265347 4.80085419,11.2827852 L4.80085419,12.1171765 C4.80199543,12.3734269 4.80428493,12.5859387 4.80775068,12.7546862 C4.81285479,13.0078937 4.83468904,13.327812 4.8731589,13.7144411 C4.91162877,14.1012427 4.96682877,14.4469651 5.0387589,14.7516081 C5.12089726,15.0937921 5.29925753,15.3821242 5.57393425,15.6164317 C5.84861096,15.8507393 6.16827945,15.9867499 6.53275068,16.0242046 C7.67247945,16.1414015 9.39483288,16.2 11.7,16.2 C14.0052616,16.2 15.727426,16.1414015 16.8672493,16.0242046 C17.2318151,15.9867499 17.5501603,15.8507393 17.8222849,15.6164317 C18.0944096,15.3821242 18.2714466,15.0937058 18.3535849,14.7516081 C18.4305247,14.4469651 18.4883712,14.1011564 18.5269356,13.7144411 C18.565311,13.327812 18.5871452,13.0078074 18.5922493,12.7546862 C18.5957151,12.5859387 18.5980046,12.3734269 18.5991458,12.1171765 L18.5991458,11.2827852 C18.5980046,11.0265347 18.5957151,10.8140613 18.5922493,10.6453138 C18.5872397,10.3921926 18.565311,10.072188 18.5269356,9.68555894 C18.4883712,9.29875726 18.4331712,8.95303492 18.3613356,8.64839192 C18.2791973,8.30629423 18.1007425,8.01796214 17.8261603,7.78356826 C17.5514836,7.54917439 17.2319096,7.4132501 16.8672493,7.37570911 C15.727426,7.25859847 14.0050726,7.2 11.7,7.2 Z M10.4833315,9.07040446 L14.4261616,11.3203613 C14.5801356,11.399931 14.6570753,11.5265347 14.6570753,11.7 C14.6570753,11.8734653 14.5801356,12.000069 14.4261616,12.079725 L10.4833315,14.3295955 C10.4114014,14.3764571 10.3240644,14.3998447 10.2214151,14.3998447 C10.1444753,14.3998447 10.064889,14.3811173 9.98275068,14.3436626 C9.81336986,14.2592601 9.72867945,14.1280824 9.72867945,13.9499568 L9.72867945,9.45004315 C9.72867945,9.27200391 9.81336986,9.14073989 9.98275068,9.05633738 C10.1573301,8.97184857 10.3241589,8.97659513 10.4833315,9.07040446 Z" id="Combined-Shape" fill="#000000"></path>
    </g>
</svg>